<?xml version="1.0" encoding="UTF-8" standalone="no"?>
<!-- file: cannon_ball.svg -->
<svg
   xmlns:svg="http://www.w3.org/2000/svg"
   xmlns="http://www.w3.org/2000/svg"
   version="1.0"
   width="3.5"
   height="3.5"
   id="asset-cannon-ball">
  <path
     d="M 3.5,1.75 C 3.5,2.716525 2.7164988,3.5 1.75,3.5 C 0.78350125,3.5 0,2.716525 0,1.75 C 0,0.783475 0.78350125,0 1.75,0 C 2.7164988,0 3.5,0.783475 3.5,1.75 z "
     style="fill:#000000"
     id="path3" />
  <path
     d="M 1.3665575,0.6460125 C 1.4230388,0.70175 1.43031,0.79835 1.385615,0.899325 C 1.3409288,1.0002125 1.2511013,1.090075 1.1501613,1.1347 C 1.0492213,1.1794125 0.952595,1.17215 0.89686625,1.1157125 C 0.840385,1.059975 0.83311375,0.963375 0.87780875,0.8624 C 0.922495,0.761425 1.0123312,0.67165 1.1132625,0.6269375 C 1.2142113,0.582225 1.3108375,0.5894875 1.3665575,0.6460125 L 1.3665575,0.6460125 z "
     style="fill:#ffffff"
     id="path5" />
</svg>
