<?xml version="1.0" encoding="UTF-8" standalone="no"?>
<!-- Created with Inkscape (http://www.inkscape.org/) -->
<svg
   xmlns:svg="http://www.w3.org/2000/svg"
   xmlns="http://www.w3.org/2000/svg"
   version="1.0"
   width="19"
   height="6"
   id="asset-cannon">
  <defs
     id="defs24" />
  <path
     d="M 4.5,3 C 4.5,4.104 3.604,5 2.5,5 C 1.396,5 0.5,4.104 0.5,3 C 0.5,1.896 1.396,1 2.5,1 C 3.604,1 4.5,1.896 4.5,3 z"
     id="path1320"
     style="fill:#630025;fill-opacity:1" />
  <path
     d="M 4.40625,1.5 C 4.8754199,2.1314299 4.8754199,3.8685701 4.40625,4.5 L 6.09375,4.5 L 6.09375,1.5 L 4.40625,1.5 z"
     id="rect1331"
     style="fill:#ba00ff;fill-opacity:1" />
  <path
     d="M 4.84375,2.4375 C 4.9199275,2.6859095 4.9028547,3.2986739 4.8125,3.5625 L 6.1875,3.5625 L 6.1875,2.4375 L 4.84375,2.4375 z"
     id="rect7501"
     style="fill:#ba9cff;fill-opacity:1" />
  <path
     d="M 4.6875,1.9375 C 4.7225961,2.0069117 4.7530637,2.0833555 4.78125,2.15625 L 6.1875,2.15625 L 6.1875,1.9375 L 4.6875,1.9375 z"
     id="rect10156"
     style="fill:#ba9cff;fill-opacity:1" />
  <path
     d="M 5.168365,0.6 C 6.2439004,1.7627198 6.4081422,3.9507145 5.147453,5.4 L 18.527957,5.4 L 18.527957,0.6 L 5.168365,0.6 z"
     id="path7"
     style="fill:#006bff" />
  <path
     d="M 5.5625,1.1875 C 5.9566422,1.8697535 6.0185469,2.6780027 6.0285714,3.4491071 C 10.196131,3.4348213 14.36369,3.4205357 18.53125,3.40625 C 18.53125,2.6666667 18.53125,1.9270833 18.53125,1.1875 C 14.208333,1.1875 9.8854167,1.1875 5.5625,1.1875 z"
     id="path8388"
     style="fill:#008fff" />
  <path
     d="M 5.6875,1.34375 C 5.8,1.5726203 5.8815061,1.8043667 5.9375,2.0625 L 18.53125,2.0625 L 18.53125,1.34375 L 5.6875,1.34375 z"
     id="path7470"
     style="fill:#00b4ff" />
  <path
     d="M 17.240599,0.14330251 C 17.240599,0.14330251 17.194024,5.8121871 17.194024,5.8121871 C 17.416713,5.8121953 17.674072,5.8232931 18.006261,5.7932026 C 17.750389,4.0461352 17.771434,1.8671275 18.065865,0.16874911 C 17.841466,0.13233811 17.403749,0.12173111 17.240599,0.14330251 z"
     id="path10152"
     style="fill:#865878" />
  <path
     d="M 17.23774,0.1484375 C 16.940572,1.7609646 16.949955,4.1567086 17.190865,5.8125 C 17.285928,5.8306293 17.491128,5.8161259 17.472115,5.8125 C 17.21558,4.2035836 17.206197,1.7609646 17.503365,0.1328125 C 17.480377,0.13074866 17.355676,0.11374778 17.23774,0.1484375 z"
     id="path10154"
     style="fill:#bdbace;fill-opacity:1" />
  <path
     d="M 8.441004,0.59269451 L 7,5.4107047 C 7,6.0106877 8.003785,6.0208219 8.003785,5.4107047 L 9.444782,0.59269451 C 9.444782,-0.01755682 8.441004,-0.0072802742 8.441004,0.59269451 z"
     id="path6609"
     style="fill:#ba00ff" />
  <path
     d="M 8.525268,0.82496502 C 8.525268,0.82496502 7.320407,4.8916303 7.320407,4.8916303 C 7.139065,5.4557953 7.31389,5.6599876 7.548981,5.0294393 C 7.548981,5.0294393 8.752072,0.96170732 8.752072,0.96170732 C 8.952241,0.33097421 8.740327,0.21391289 8.525268,0.82496502 z"
     id="path6611"
     style="fill:#ba9cff" />
  <path
     d="M 10.941004,0.59269451 L 9.5,5.4107047 C 9.5,6.0106877 10.503785,6.0208219 10.503785,5.4107047 L 11.944782,0.59269451 C 11.944782,-0.01755682 10.941004,-0.0072802742 10.941004,0.59269451 z"
     id="path6613"
     style="fill:#ba00ff" />
  <path
     d="M 11.025268,0.82496502 C 11.025268,0.82496502 9.820407,4.8916303 9.820407,4.8916303 C 9.639065,5.4557953 9.81389,5.6599876 10.048981,5.0294393 C 10.048981,5.0294393 11.252072,0.96170732 11.252072,0.96170732 C 11.452241,0.33097421 11.240327,0.21391289 11.025268,0.82496502 z"
     id="path6615"
     style="fill:#ba9cff" />
  <path
     d="M 13.441004,0.59269451 L 12,5.4107047 C 12,6.0106877 13.003785,6.0208219 13.003785,5.4107047 L 14.444782,0.59269451 C 14.444782,-0.01755682 13.441004,-0.0072802742 13.441004,0.59269451 z"
     id="path6617"
     style="fill:#ba00ff" />
  <path
     d="M 13.525268,0.82496502 C 13.525268,0.82496502 12.320407,4.8916303 12.320407,4.8916303 C 12.139065,5.4557953 12.31389,5.6599876 12.548981,5.0294393 C 12.548981,5.0294393 13.752072,0.96170732 13.752072,0.96170732 C 13.952241,0.33097421 13.740327,0.21391289 13.525268,0.82496502 z"
     id="path6619"
     style="fill:#ba9cff" />
  <path
     d="M 18.040321,0.14330251 C 18.040321,0.14330251 17.993746,5.8121871 17.993746,5.8121871 C 18.216435,5.8121953 18.473794,5.8232931 18.805983,5.7932026 C 18.550111,4.0461352 18.571156,1.8671275 18.865587,0.16874911 C 18.641188,0.13233811 18.203471,0.12173111 18.040321,0.14330251 z"
     id="path1367"
     style="fill:#865878" />
  <path
     d="M 18.037462,0.1484375 C 17.740294,1.7609646 17.749677,4.1567086 17.990587,5.8125 C 18.08565,5.8306293 18.29085,5.8161259 18.271837,5.8125 C 18.015302,4.2035836 18.005919,1.7609646 18.303087,0.1328125 C 18.280099,0.13074866 18.155398,0.11374778 18.037462,0.1484375 z"
     id="path1369"
     style="fill:#bdbace;fill-opacity:1" />
  <path
     d="M 17.459045,5.7392532 C 17.423383,5.6371201 17.335444,4.7067717 17.299572,4.0520947 C 17.239918,2.9634345 17.309336,1.3232645 17.453369,0.41821494 L 17.494675,0.15865209 L 17.753087,0.16956031 C 17.895212,0.17555967 18.017029,0.18599964 18.023789,0.19276038 C 18.030549,0.19952044 18.011225,0.37371098 17.980844,0.57984887 C 17.880023,1.2639354 17.854081,1.6372968 17.833366,2.7023679 C 17.809865,3.9106894 17.86092,4.9429708 17.980142,5.6700364 L 17.998586,5.7825137 L 17.736368,5.7825137 C 17.557723,5.7825137 17.469337,5.768726 17.459046,5.7392532 L 17.459045,5.7392532 z"
     id="path3171"
     style="opacity:1;fill:#630025;fill-opacity:1;fill-rule:evenodd;stroke:none;stroke-width:3.0999999;stroke-linecap:round;stroke-linejoin:round;marker:none;marker-start:none;marker-mid:none;marker-end:none;stroke-miterlimit:4;stroke-dasharray:none;stroke-dashoffset:0;stroke-opacity:1;visibility:visible;display:inline;overflow:visible;enable-background:accumulate" />
  <path
     d="M 18.256345,5.7046448 C 18.106265,5.0287065 18.032991,2.6209123 18.129172,1.5256831 C 18.184057,0.90067823 18.275362,0.19982499 18.306382,0.16540592 C 18.32019,0.15008548 18.447341,0.14804947 18.588941,0.16088122 L 18.846396,0.18421142 L 18.788147,0.60403632 C 18.585311,2.0659389 18.566299,4.0360766 18.742034,5.3823169 C 18.769208,5.590487 18.791442,5.7656923 18.791442,5.7716612 C 18.791442,5.7776297 18.674935,5.7825137 18.532538,5.7825137 C 18.292241,5.7825137 18.272392,5.7769175 18.256346,5.7046448 L 18.256345,5.7046448 z"
     id="path3173"
     style="opacity:1;fill:#630025;fill-opacity:1;fill-rule:evenodd;stroke:none;stroke-width:3.0999999;stroke-linecap:round;stroke-linejoin:round;marker:none;marker-start:none;marker-mid:none;marker-end:none;stroke-miterlimit:4;stroke-dasharray:none;stroke-dashoffset:0;stroke-opacity:1;visibility:visible;display:inline;overflow:visible;enable-background:accumulate" />
</svg>
