<?xml version="1.0" encoding="UTF-8" standalone="no"?>
<!-- file: cannon_pivot.svg -->
<svg
   xmlns:svg="http://www.w3.org/2000/svg"
   xmlns="http://www.w3.org/2000/svg"
   version="1.0"
   width="5"
   height="10"
   id="asset-cannon-pivot">
  <path
     d="M 0,0 L 0,10 C 2.761424,10 5,7.7614164 5,5 C 5,2.238582 2.7614238,0 0,0 z M 2.28125,3 C 2.3484842,2.993172 2.4309644,3 2.5,3 C 3.6045698,3 4.5,3.8954328 4.5,5 C 4.5,6.1045665 3.6045698,7 2.5,7 C 1.3954303,7 0.5,6.1045666 0.5,5 C 0.5,3.9644682 1.2727377,3.1024203 2.28125,3 z "
     style="fill:#686868"
     id="path1309" />
  <path
     d="M 0,1.25 L 0,8.75 C 2.761424,8.75 5,7.0710623 5,5 C 5,2.9289365 2.7614238,1.25 0,1.25 z M 2.28125,3 C 2.3484842,2.993172 2.4309644,3 2.5,3 C 3.6045698,3 4.5,3.8954328 4.5,5 C 4.5,6.1045665 3.6045698,7 2.5,7 C 1.3954303,7 0.5,6.1045666 0.5,5 C 0.5,3.9644682 1.2727377,3.1024203 2.28125,3 z "
     style="fill:#969696"
     id="path1307" />
  <path
     d="M 2.25,2.5037905 C 0.98935995,2.6317187 0,3.7084618 0,5.0018952 C 0,6.3815567 1.1192881,7.5 2.5,7.5 C 3.880712,7.5 5,6.3815567 5,5.0018952 C 5,3.6222329 3.8807119,2.5037905 2.5,2.5037905 C 2.4137055,2.5037905 2.3340427,2.4952619 2.25,2.5037905 z M 2.28125,3.0034114 C 2.3484842,2.9965886 2.4309644,3.0034114 2.5,3.0034114 C 3.6045698,3.0034114 4.5,3.8981654 4.5,5.0018952 C 4.5,6.1056244 3.6045698,7.000379 2.5,7.000379 C 1.3954303,7.000379 0.5,6.1056245 0.5,5.0018952 C 0.5,3.9671485 1.2727377,3.1057541 2.28125,3.0034114 z "
     style="fill:#d2d2d2"
     id="path6" />
</svg>
