<?xml version="1.0" encoding="UTF-8" standalone="no"?>
<!-- cash.svg -->
<svg
   xmlns:svg="http://www.w3.org/2000/svg"
   xmlns="http://www.w3.org/2000/svg"
   version="1.0"
   width="15.303126"
   height="16.060547"
   id="asset-cash">
  <path
     d="M 8.1943552,13.262018 C 9.5638022,13.662852 10.640263,11.845542 10.86116,10.507839 C 11.082058,9.170136 12.735216,8.259712 12.167313,6.76461 C 11.599411,5.269503 12.419974,3.383284 10.224452,3.986034 C 8.0608562,4.580017 4.847416,2.125021 4.6089951,4.215126 C 4.3705744,6.305227 4.3274186,6.866079 2.7635759,7.986902 C 1.1997334,9.107722 3.331975,11.812597 4.8492415,11.737441 C 6.3665084,11.662283 6.8249084,12.861182 8.1943552,13.262018 z "
     style="fill:#ffb900"
     id="path13012" />
  <path
     d="M 4.9945384,5.623387 C 4.9262128,6.488521 3.8885483,8.01544 3.1332894,8.500108 C 1.5406041,10.031015 4.6217838,11.187258 5.758516,11.400217 C 7.5726132,12.244494 9.2912382,13.956921 10.095635,11.015502 C 10.618502,9.233009 12.046963,8.226597 11.351842,6.353203 C 11.391022,4.265479 10.366645,4.842401 8.7541582,4.78497 C 6.9763804,4.435969 5.0179062,3.095014 4.9945384,5.623387 z "
     style="fill:#ffdc00"
     id="path13014" />
  <path
     d="M 4.3120516,8.615628 C 2.6714796,9.696034 4.980883,10.472404 5.9546612,10.634995 C 7.1769462,10.896537 8.7172672,13.088214 9.3486172,11.02967 C 9.4704022,9.455676 11.317488,8.379824 10.683276,6.847672 C 10.624376,5.185268 9.5757962,5.727513 8.3160292,5.557049 C 5.0805941,3.759877 5.9823881,6.590005 4.3120516,8.615628 z "
     style="fill:#ffff01"
     id="path13016" />
  <path
     d="M 6.8701272,7.459007 C 5.5655367,8.503904 5.7056479,10.48999 7.6624412,10.23648 C 9.0376122,8.957411 9.2827842,6.778238 6.8701272,7.459007 z "
     style="fill:#ffff6d"
     id="path13018" />
  <path
     d="M 6.7025539,0.08887 L 7.1154062,0 L 7.5820112,2.167632 L 7.1691592,2.256502 L 6.7025539,0.08887 z "
     style="fill:#fff100"
     id="rect5437" />
  <path
     d="M 6.8958044,13.803474 L 7.3107992,13.881826 L 6.8994529,16.060547 L 6.4844579,15.982195 L 6.8958044,13.803474 z "
     style="fill:#fff100"
     id="rect5439" />
  <path
     d="M 0,4.268972 L 0.2198846,3.909183 L 2.1147648,5.067236 L 1.8948802,5.427025 L 0,4.268972 z "
     style="fill:#fff100"
     id="rect5441" />
  <path
     d="M 15.076374,2.885052 L 15.303126,3.239822 L 13.429204,4.437548 L 13.202452,4.082778 L 15.076374,2.885052 z "
     style="fill:#fff100"
     id="rect5443" />
  <path
     d="M 12.599035,10.914803 L 12.86365,10.587699 L 14.593966,11.987458 L 14.329351,12.314562 L 12.599035,10.914803 z "
     style="fill:#fff100"
     id="rect5445" />
  <path
     d="M 1.8022026,11.375099 L 2.1298347,11.639099 L 0.7334784,13.372018 L 0.4058463,13.108018 L 1.8022026,11.375099 z "
     style="fill:#fff100"
     id="rect5447" />
</svg>
