<?xml version="1.0" encoding="UTF-8" standalone="no"?>
<!-- Created with Inkscape (http://www.inkscape.org/) -->

<svg
   xmlns:dc="http://purl.org/dc/elements/1.1/"
   xmlns:cc="http://creativecommons.org/ns#"
   xmlns:rdf="http://www.w3.org/1999/02/22-rdf-syntax-ns#"
   xmlns:svg="http://www.w3.org/2000/svg"
   xmlns="http://www.w3.org/2000/svg"
   xmlns:sodipodi="http://sodipodi.sourceforge.net/DTD/sodipodi-0.dtd"
   xmlns:inkscape="http://www.inkscape.org/namespaces/inkscape"
   width="40"
   height="60"
   id="svg2"
   version="1.1"
   inkscape:version="0.48.2 r9819"
   sodipodi:docname="egg.svg">
  <defs
     id="defs4" />
  <sodipodi:namedview
     id="base"
     pagecolor="#ffffff"
     bordercolor="#666666"
     borderopacity="1.0"
     inkscape:pageopacity="0.0"
     inkscape:pageshadow="2"
     inkscape:zoom="0.51218108"
     inkscape:cx="0.26155771"
     inkscape:cy="4.3372584"
     inkscape:document-units="px"
     inkscape:current-layer="layer1"
     showgrid="false"
     inkscape:window-width="1440"
     inkscape:window-height="757"
     inkscape:window-x="0"
     inkscape:window-y="0"
     inkscape:window-maximized="0"
     fit-margin-top="0"
     fit-margin-left="0"
     fit-margin-right="0"
     fit-margin-bottom="0" />
  <metadata
     id="metadata7">
    <rdf:RDF>
      <cc:Work
         rdf:about="">
        <dc:format>image/svg+xml</dc:format>
        <dc:type
           rdf:resource="http://purl.org/dc/dcmitype/StillImage" />
        <dc:title></dc:title>
      </cc:Work>
    </rdf:RDF>
  </metadata>
  <g
     inkscape:label="Layer 1"
     inkscape:groupmode="layer"
     id="layer1"
     transform="translate(-371.78568,-470.51835)">
    <path
       style="fill:#ff0000;fill-rule:evenodd;stroke:none"
       d="m 391.78566,530.51827 c -33.2425,-0.08 -19.179,-59.94799 0,-59.99989 19.179,-0.05 33.24261,60.07989 0,59.99989 z"
       id="path2987"
       inkscape:connector-curvature="0"
       sodipodi:nodetypes="zzz" />
    <path
       sodipodi:type="arc"
       style="fill:#000000;fill-opacity:1;stroke:none"
       id="path3824"
       sodipodi:cx="429.56665"
       sodipodi:cy="472.85843"
       sodipodi:rx="6.3264599"
       sodipodi:ry="5.6938143"
       d="m 435.89311,472.85843 c 0,3.14461 -2.83245,5.69381 -6.32646,5.69381 -3.49401,0 -6.32646,-2.5492 -6.32646,-5.69381 0,-3.14461 2.83245,-5.69382 6.32646,-5.69382 3.49401,0 6.32646,2.54921 6.32646,5.69382 z"
       transform="matrix(0.54730524,0,0,0.59503907,148.25793,219.09558)" />
    <path
       sodipodi:type="arc"
       style="fill:#000000;fill-opacity:1;stroke:none"
       id="path3848"
       sodipodi:cx="535.21851"
       sodipodi:cy="473.49109"
       sodipodi:rx="6.3264599"
       sodipodi:ry="5.6938143"
       d="m 541.54497,473.49109 c 0,3.14461 -2.83246,5.69381 -6.32646,5.69381 -3.49401,0 -6.32646,-2.5492 -6.32646,-5.69381 0,-3.14461 2.83245,-5.69382 6.32646,-5.69382 3.494,0 6.32646,2.54921 6.32646,5.69382 z"
       transform="matrix(0.53885414,0,0,0.61747107,111.02454,208.33718)" />
  </g>
</svg>
