<?xml version="1.0" encoding="UTF-8" standalone="no"?>
<!-- fuel.svg -->
<svg
   xmlns:svg="http://www.w3.org/2000/svg"
   xmlns="http://www.w3.org/2000/svg"
   version="1.0"
   width="23.220537"
   height="28.16201"
   id="asset-fuel">
  <path
     d="M 6.54966,3.9524 C 7.08305,3.41901 10.89603,3.48624 14.69833,3.44782 C 18.56051,3.40877 17.56026,10.22446 18.16925,11.20623 C 18.89647,12.37865 23.15423,11.81479 23.20865,15.71874 C 23.16412,19.63336 23.40661,26.68217 22.80365,27.46024 C 22.14706,28.30753 18.22757,28.10153 14.46182,28.11521 C 10.58224,28.1293 7.16545,28.40004 6.54966,27.46024 C 5.96431,26.56691 6.16167,19.65125 6.10299,15.75706 C 6.08214,11.81801 5.87097,4.83843 6.54966,3.9524 C 7.21832,3.07943 6.54966,3.9524 6.54966,3.9524"
     style="fill:#ff0001"
     id="path15805" />
  <path
     d="M 14.71304,4.37602 C 11.32644,4.41151 7.94067,4.34913 7.4656,4.84145 C 6.85232,11.95175 6.66951,19.3967 7.4656,26.51725 C 12.02138,27.71784 17.348,27.30775 21.96047,26.51725 C 22.49749,25.79903 22.25326,19.29297 22.29292,15.67935 C 22.24443,12.07556 18.37676,13.24477 17.72905,12.16246 C 15.56383,11.13708 17.10613,4.30025 14.71304,4.37602 z M 16.79819,12.89251 C 17.98071,13.79346 20.58049,13.05275 21.36205,15.61286 C 21.32714,18.92076 21.5031,24.92892 21.0296,25.58639 C 16.97349,26.54413 12.28305,26.3957 8.26349,25.58639 C 7.88391,19.03646 7.46403,12.23701 8.26349,5.70582 C 8.6823,5.25512 11.66078,5.33935 14.64655,5.30688 C 15.25121,6.40417 14.97876,11.50632 16.79819,12.89251 z "
     style="fill:#8c0000"
     id="path15807" />
  <path
     d="M 16.08714,5.96734 C 15.15366,7.02967 19.15311,6.78399 20.58719,8.18379 C 20.97396,9.46702 20.55526,11.98839 20.3857,13.22117 C 22.39888,13.70546 22.93529,10.27948 22.33351,8.38528 C 21.75531,6.68743 17.65397,4.18425 16.08714,5.96734 z "
     style="fill:#000001"
     id="path15818" />
  <path
     d="M 9.65518,4.52253 C 10.40664,3.93116 8.56868,2.55876 8.67534,1.98288 C 8.84164,1.08509 6.37921,1.20362 6.4417,0.2418 C 6.49863,-0.63481 4.72925,1.20153 3.97577,0.57174 C 2.86963,-0.35283 2.39909,1.51762 2.16616,1.16258 C 1.26317,-0.21372 2.33407,2.78792 0.32592,2.17923 C -0.55658,1.91173 0.54411,2.84609 1.36823,4.20902 C 1.48217,4.39745 2.12801,2.26278 2.53135,3.71903 C 3.01017,5.44771 3.30168,1.35362 3.79437,2.99473 C 4.08435,3.96074 4.56004,1.06626 5.34717,2.62945 C 5.56477,3.06154 6.10612,2.77279 6.46678,3.08743 C 7.31422,3.82669 5.56971,4.40732 7.48771,3.19298 C 7.81016,2.98885 7.91631,4.32883 7.88046,4.52236 C 7.65969,5.71416 9.23803,4.98939 9.65518,4.52253 z "
     style="fill:#000001"
     id="path16705" />
  <path
     d="M 13.53828,25.49538 C 10.78295,24.1854 11.22744,24.02783 10.51897,23.13459 C 9.81044,22.24141 9.81044,21.05051 8.07856,20.27641 C 8.79593,19.98653 11.05173,20.08753 11.94549,20.32213 C 12.81145,20.61983 11.31096,19.8981 10.83861,18.70714 C 10.36626,17.51626 10.445,16.10819 11.07478,15.51273 C 11.34274,16.18045 11.93595,17.23957 12.95932,17.77549 C 13.98274,18.31137 12.64446,17.06094 12.64446,15.92953 C 12.64446,14.79821 13.11681,13.84545 13.11681,13.48817 C 13.11681,13.13089 13.70046,14.637 14.25152,14.81564 C 14.57989,14.80477 14.3859,14.84751 14.70078,14.13295 C 15.0157,13.4184 15.46018,13.24276 15.46018,11.51596 C 15.84984,12.35753 16.78416,13.35526 16.62669,14.72481 C 16.46926,16.09437 16.17743,16.71028 15.71465,17.41819 C 15.08485,17.89459 17.97454,16.17496 18.37771,15.11994 C 18.75302,15.49652 18.95494,17.74119 17.84014,18.7282 C 17.72734,19.20996 19.99827,18.41667 20.62802,17.94027 C 20.75684,18.70603 20.59547,20.51459 18.46992,21.82459 C 17.70821,22.27146 20.20184,21.94369 20.59547,21.52689 C 20.98908,21.11006 20.38038,25.21906 15.73576,25.45724 C 15.99503,25.21861 17.14131,24.64621 17.20771,24.20116 C 16.63396,24.17718 16.09217,24.12791 15.67222,24.01744 C 16.05942,23.84372 17.50285,23.33873 17.58932,22.91824 C 17.09609,23.16678 15.9141,23.03397 15.51849,23.00737 C 15.64811,22.67543 16.85246,21.57732 16.52234,20.3884 C 16.31744,20.57429 15.19699,21.62959 14.92748,21.89553 C 14.69082,22.12916 14.35413,20.58899 14.10857,20.41228 C 13.51234,21.10003 14.17236,22.2557 14.216,23.04817 C 13.82617,22.80194 12.82013,22.97141 12.3288,22.9328 C 12.83793,23.4023 13.34469,24.15535 13.31738,24.57847 C 13.30014,24.81874 13.51854,25.52519 13.53828,25.49538 z "
     style="fill:#ffc500"
     id="path1011" />
</svg>
