<?xml version="1.0" encoding="UTF-8" standalone="no"?>
<!-- Created with Inkscape (http://www.inkscape.org/) -->
<svg
   xmlns:svg="http://www.w3.org/2000/svg"
   xmlns="http://www.w3.org/2000/svg"
   version="1.0"
   width="65"
   height="25"
   id="asset-msgbox-paused">
  <path
     d="M 7.0312498,0.0044880831 C 3.1153106,0.25290348 0,3.5255759 0,7.5031418 L 0,17.501346 C 0,21.640603 3.3600017,24.99999 7.4999998,25 L 57.5,25 C 61.639998,25 64.999997,21.640593 65,17.501346 L 65,7.5031418 C 65,3.3638849 61.639998,0.0044880831 57.5,0.0044880831 C 57.5,0.0044880831 7.1904348,-0.0056101039 7.0312498,0.0044880831 z"
     id="path2188"
     style="fill:#004fba;fill-opacity:1" />
  <path
     d="M 10.165865,4.0068195 C 6.7318878,4.1757092 4,6.4007297 4,9.1049942 L 4,15.902553 C 4,18.716738 6.9464628,21.000708 10.576923,21.000718 L 54.423077,21.000718 C 58.053537,21.000718 60.999997,18.716728 61,15.902553 L 61,9.1049942 C 61,6.2907994 58.053537,4.0068195 54.423077,4.0068195 C 54.423077,4.0068195 10.305458,3.9999607 10.165865,4.0068195 z"
     id="path2205"
     style="fill:#ffb700;fill-opacity:1" />
</svg>
