<?xml version="1.0" encoding="UTF-8" standalone="no"?>
<!-- file: msgbox_loot.svg -->
<svg
   xmlns:svg="http://www.w3.org/2000/svg"
   xmlns="http://www.w3.org/2000/svg"
   version="1.0"
   width="80"
   height="88.5"
   id="asset-msgbox-loot">
  <path
     d="M 8.4375,0.0033334 C 3.743032,0.23582663 0,4.0395101 0,8.6786204 L 0,79.824713 C 0,84.613476 3.982222,88.5 8.888889,88.5 L 71.11111,88.5 C 76.01778,88.5 80,84.613476 80,79.824713 L 80,8.6786204 C 80,3.889861 76.01778,0.0033334 71.11111,0.0033334 C 71.11111,0.0033334 8.588935,-0.00416675 8.4375,0.0033334 z "
     style="fill:#004fba"
     id="path4999" />
  <path
     d="M 11.59375,4.0030706 C 7.368729,4.2172425 4,7.7211909 4,11.994733 L 4,76.508338 C 4,80.919735 7.584,84.5 12,84.5 L 68,84.5 C 72.416,84.5 76,80.919735 76,76.508338 L 76,11.994733 C 76,7.5833349 72.416,4.0030706 68,4.0030706 C 68,4.0030706 11.730041,3.9961617 11.59375,4.0030706 z "
     style="fill:#ffb700"
     id="path3058" />
</svg>
