<?xml version="1.0" encoding="UTF-8" standalone="no"?>
<!-- good.svg -->
<svg
   xmlns:svg="http://www.w3.org/2000/svg"
   xmlns="http://www.w3.org/2000/svg"
   version="1.0"
   width="32"
   height="32"
   id="asset-result-good">
  <path
     d="M 32,25.20655 L 10.20856,4.43268 L 12.68348,32 L 26.48154,5.63777 L 0,16.42149 L 30.31912,20.90261 L 11.4777,0 L 16.41788,29.13172 L 31.25479,5.42947 L 3.98888,18.95274 L 32,25.20655 z "
     style="fill:#49ff00"
     id="path2198" />
  <path
     d="M 14.99016,1.59912 C 15.37682,1.28323 16.46987,2.25204 16.8515,4.37597 C 17.05917,5.53173 16.70525,7.59482 17.35263,10.42554 C 18.79905,12.96048 19.02947,14.56125 27.01731,15.48337 C 28.54457,15.65968 31.93318,15.4393 31.74227,16.80569 L 31.74227,22.62386 C 31.74227,24.87828 26.19241,21.80688 21.71964,22.88832 C 19.85427,23.33933 18.50575,23.53784 14.82571,24.31773 C 10.07164,23.71034 11.14767,23.68203 7.97431,22.75609 C 5.23642,21.9572 8.26067,19.847 8.26067,19.847 C 8.26067,19.847 4.60517,18.03894 8.69021,16.80569 C 7.25841,16.54122 5.14607,14.81501 8.69022,14.29329 C 6.59228,13.39157 6.46042,11.99977 8.83339,11.51644 C 10.21685,11.23467 11.5555,12.66936 12.84245,10.85529 C 15.56288,7.02059 11.26746,4.64044 14.99016,1.59912 z "
     style="fill:#000001"
     id="path2181" />
  <path
     d="M 14.14304,1.59531 C 14.48998,1.29999 15.4707,2.20571 15.81312,4.19131 C 15.99945,5.2718 15.6819,7.20052 16.26275,9.84688 C 17.56054,12.21673 17.76728,13.71324 24.9343,14.57532 C 26.30461,14.74014 29.34501,14.5341 29.17372,15.8115 L 29.17372,21.25074 C 29.17372,23.35834 24.19416,20.48698 20.18101,21.49798 C 18.50732,21.91962 17.29738,22.1052 13.99549,22.8343 C 9.72996,22.26646 10.69541,22.24001 7.84814,21.37436 C 5.39159,20.62751 8.10508,18.65474 8.10508,18.65474 C 8.10508,18.65474 4.82521,16.96444 8.49048,15.81151 C 7.20581,15.56426 5.31053,13.95048 8.49048,13.46274 C 6.60813,12.61974 6.48982,11.31859 8.61895,10.86674 C 9.86024,10.60331 11.06133,11.94458 12.21603,10.24865 C 14.65691,6.66369 10.80289,4.43855 14.14304,1.59531 z "
     style="fill:#9e731c"
     id="path1315" />
</svg>
