<?xml version="1.0" encoding="UTF-8" standalone="no"?>
<!-- bad.svg -->
<svg
   xmlns:svg="http://www.w3.org/2000/svg"
   xmlns="http://www.w3.org/2000/svg"
   version="1.0"
   width="27.709463"
   height="28.497561"
   id="asset-result-bad">
  <path
     d="M 27.709464,13.969059 C 27.711213,21.68344 21.507726,27.938117 13.854733,27.938117 C 6.2017383,27.938117 -0.0017486043,21.68344 0,13.969059 C -0.0017486043,6.2546768 6.2017383,0 13.854733,0 C 21.507726,0 27.711213,6.2546768 27.709464,13.969059 L 27.709464,13.969059 z "
     style="fill:#b50000"
     id="path2792" />
  <path
     d="M 17.868008,28.439063 C 17.481348,28.754953 16.388298,27.786143 16.006668,25.662213 C 15.798998,24.506453 16.152918,22.443363 15.505538,19.612643 C 14.059118,17.077703 13.828698,15.476933 5.8408572,14.554813 C 4.3135967,14.378503 0.92498669,14.598883 1.1158967,13.232493 L 1.1158967,7.4143227 C 1.1158967,5.159903 6.6657572,8.2313027 11.138528,7.1498627 C 13.003898,6.698853 14.352418,6.500343 18.032458,5.720453 C 22.786528,6.327843 21.710498,6.356153 24.883858,7.2820927 C 27.621748,8.0809827 24.597498,10.191183 24.597498,10.191183 C 24.597498,10.191183 28.252998,11.999243 24.167958,13.232493 C 25.599758,13.496963 27.712098,15.223173 24.167948,15.744893 C 26.265888,16.646613 26.397748,18.038413 24.024778,18.521743 C 22.641318,18.803513 21.302668,17.368823 20.015718,19.182893 C 17.295288,23.017593 21.590708,25.397743 17.868008,28.439063 z "
     style="fill:#000001"
     id="path2181" />
  <path
     d="M 16.14578,26.959442 C 15.79884,27.254762 14.81812,26.349042 14.4757,24.363442 C 14.28937,23.282952 14.60692,21.354232 14.02607,18.707872 C 12.72828,16.338022 12.52154,14.841512 5.3545192,13.979432 C 3.9842091,13.814612 0.94380909,14.020652 1.1150991,12.743252 L 1.1150991,7.3040117 C 1.1150991,5.196412 6.0946592,8.0677717 10.10781,7.0567717 C 11.7815,6.635132 12.99144,6.449552 16.29333,5.720452 C 20.55886,6.288292 19.59341,6.314742 22.44068,7.1803917 C 24.89723,7.9272417 22.18374,9.9000117 22.18374,9.9000117 C 22.18374,9.9000117 25.46361,11.590312 21.79834,12.743242 C 23.08301,12.990492 24.97829,14.604272 21.79834,15.092012 C 23.68069,15.935012 23.799,17.236162 21.66987,17.688012 C 20.42858,17.951442 19.22749,16.610172 18.07279,18.306102 C 15.63191,21.891062 19.48593,24.116202 16.14578,26.959442 z "
     style="fill:#e1cb91"
     id="path1315" />
</svg>
