<?xml version="1.0" encoding="UTF-8" standalone="no"?>
<!-- file: bg_pretty.svg -->
<svg
   xmlns:dc="http://purl.org/dc/elements/1.1/"
   xmlns:cc="http://creativecommons.org/ns#"
   xmlns:rdf="http://www.w3.org/1999/02/22-rdf-syntax-ns#"
   xmlns:svg="http://www.w3.org/2000/svg"
   xmlns="http://www.w3.org/2000/svg"
   xmlns:sodipodi="http://sodipodi.sourceforge.net/DTD/sodipodi-0.dtd"
   xmlns:inkscape="http://www.inkscape.org/namespaces/inkscape"
   version="1.0"
   width="176"
   height="208"
   id="svg2"
   sodipodi:version="0.32"
   inkscape:version="0.46"
   sodipodi:docname="screen_loot.svg"
   sodipodi:docbase="C:\cygwin\home\jeffhollocher\svn\everypoint\apps\collection\angry.cannon\assets\screens"
   inkscape:output_extension="org.inkscape.output.svg.inkscape">
  <metadata
     id="metadata8">
    <rdf:RDF>
      <cc:Work
         rdf:about="">
        <dc:format>image/svg+xml</dc:format>
        <dc:type
           rdf:resource="http://purl.org/dc/dcmitype/StillImage" />
      </cc:Work>
    </rdf:RDF>
  </metadata>
  <defs
     id="defs6">
    <inkscape:perspective
       sodipodi:type="inkscape:persp3d"
       inkscape:vp_x="0 : 104 : 1"
       inkscape:vp_y="0 : 1000 : 0"
       inkscape:vp_z="176 : 104 : 1"
       inkscape:persp3d-origin="88 : 69.333333 : 1"
       id="perspective54" />
  </defs>
  <sodipodi:namedview
     inkscape:window-height="627"
     inkscape:window-width="853"
     inkscape:pageshadow="2"
     inkscape:pageopacity="0.0"
     guidetolerance="10.0"
     gridtolerance="10.0"
     objecttolerance="10.0"
     borderopacity="1.0"
     bordercolor="#666666"
     pagecolor="#ffffff"
     id="base"
     inkscape:zoom="1.8125"
     inkscape:cx="88"
     inkscape:cy="104"
     inkscape:window-x="727"
     inkscape:window-y="386"
     inkscape:current-layer="svg2"
     showgrid="false" />
  <path
     d="M 0,0 L 176,0 L 176,208 L 0,208 L 0,0 z "
     style="fill:#97d0ff;fill-opacity:1"
     id="path3" />
  <path
     d="M 36.227952,13.955074 C 27.748024,14.374582 20.986738,21.237891 20.986738,29.608632 L 20.986738,157.98358 C 20.986738,166.62436 28.180089,173.63714 37.043325,173.63714 L 149.43943,173.63714 C 158.30267,173.63714 165.49602,166.62436 165.49602,157.98358 L 165.49602,29.608632 C 165.49602,20.967867 158.30267,13.955074 149.43943,13.955074 C 149.43943,13.955074 36.501499,13.941541 36.227952,13.955074 z"
     style="fill:#004fba"
     id="path4999" />
  <path
     d="M 41.929294,21.172141 C 34.29736,21.55859 28.212202,27.881062 28.212202,35.592177 L 28.212202,151.99957 C 28.212202,159.95943 34.686218,166.4196 42.663131,166.4196 L 143.81963,166.4196 C 151.79654,166.4196 158.27056,159.95943 158.27056,151.99957 L 158.27056,35.592177 C 158.27056,27.632316 151.79654,21.172141 143.81963,21.172141 C 143.81963,21.172141 42.175486,21.159675 41.929294,21.172141 z"
     style="fill:#927f76;fill-opacity:1"
     id="path3058" />
  <g
     id="g2814"
     transform="matrix(1.2484121,0,0,1.0262891,91.204576,56.450575)">
    <path
       id="path15805"
       style="fill:#ff0001"
       d="M 6.54966,3.9524 C 7.08305,3.41901 10.89603,3.48624 14.69833,3.44782 C 18.56051,3.40877 17.56026,10.22446 18.16925,11.20623 C 18.89647,12.37865 23.15423,11.81479 23.20865,15.71874 C 23.16412,19.63336 23.40661,26.68217 22.80365,27.46024 C 22.14706,28.30753 18.22757,28.10153 14.46182,28.11521 C 10.58224,28.1293 7.16545,28.40004 6.54966,27.46024 C 5.96431,26.56691 6.16167,19.65125 6.10299,15.75706 C 6.08214,11.81801 5.87097,4.83843 6.54966,3.9524 C 7.21832,3.07943 6.54966,3.9524 6.54966,3.9524" />
    <path
       id="path15807"
       style="fill:#8c0000"
       d="M 14.71304,4.37602 C 11.32644,4.41151 7.94067,4.34913 7.4656,4.84145 C 6.85232,11.95175 6.66951,19.3967 7.4656,26.51725 C 12.02138,27.71784 17.348,27.30775 21.96047,26.51725 C 22.49749,25.79903 22.25326,19.29297 22.29292,15.67935 C 22.24443,12.07556 18.37676,13.24477 17.72905,12.16246 C 15.56383,11.13708 17.10613,4.30025 14.71304,4.37602 z M 16.79819,12.89251 C 17.98071,13.79346 20.58049,13.05275 21.36205,15.61286 C 21.32714,18.92076 21.5031,24.92892 21.0296,25.58639 C 16.97349,26.54413 12.28305,26.3957 8.26349,25.58639 C 7.88391,19.03646 7.46403,12.23701 8.26349,5.70582 C 8.6823,5.25512 11.66078,5.33935 14.64655,5.30688 C 15.25121,6.40417 14.97876,11.50632 16.79819,12.89251 z" />
    <path
       id="path15818"
       style="fill:#000001"
       d="M 16.08714,5.96734 C 15.15366,7.02967 19.15311,6.78399 20.58719,8.18379 C 20.97396,9.46702 20.55526,11.98839 20.3857,13.22117 C 22.39888,13.70546 22.93529,10.27948 22.33351,8.38528 C 21.75531,6.68743 17.65397,4.18425 16.08714,5.96734 z" />
    <path
       id="path16705"
       style="fill:#000001"
       d="M 9.65518,4.52253 C 10.40664,3.93116 8.56868,2.55876 8.67534,1.98288 C 8.84164,1.08509 6.37921,1.20362 6.4417,0.2418 C 6.49863,-0.63481 4.72925,1.20153 3.97577,0.57174 C 2.86963,-0.35283 2.39909,1.51762 2.16616,1.16258 C 1.26317,-0.21372 2.33407,2.78792 0.32592,2.17923 C -0.55658,1.91173 0.54411,2.84609 1.36823,4.20902 C 1.48217,4.39745 2.12801,2.26278 2.53135,3.71903 C 3.01017,5.44771 3.30168,1.35362 3.79437,2.99473 C 4.08435,3.96074 4.56004,1.06626 5.34717,2.62945 C 5.56477,3.06154 6.10612,2.77279 6.46678,3.08743 C 7.31422,3.82669 5.56971,4.40732 7.48771,3.19298 C 7.81016,2.98885 7.91631,4.32883 7.88046,4.52236 C 7.65969,5.71416 9.23803,4.98939 9.65518,4.52253 z" />
    <path
       id="path1011"
       style="fill:#ffc500"
       d="M 13.53828,25.49538 C 10.78295,24.1854 11.22744,24.02783 10.51897,23.13459 C 9.81044,22.24141 9.81044,21.05051 8.07856,20.27641 C 8.79593,19.98653 11.05173,20.08753 11.94549,20.32213 C 12.81145,20.61983 11.31096,19.8981 10.83861,18.70714 C 10.36626,17.51626 10.445,16.10819 11.07478,15.51273 C 11.34274,16.18045 11.93595,17.23957 12.95932,17.77549 C 13.98274,18.31137 12.64446,17.06094 12.64446,15.92953 C 12.64446,14.79821 13.11681,13.84545 13.11681,13.48817 C 13.11681,13.13089 13.70046,14.637 14.25152,14.81564 C 14.57989,14.80477 14.3859,14.84751 14.70078,14.13295 C 15.0157,13.4184 15.46018,13.24276 15.46018,11.51596 C 15.84984,12.35753 16.78416,13.35526 16.62669,14.72481 C 16.46926,16.09437 16.17743,16.71028 15.71465,17.41819 C 15.08485,17.89459 17.97454,16.17496 18.37771,15.11994 C 18.75302,15.49652 18.95494,17.74119 17.84014,18.7282 C 17.72734,19.20996 19.99827,18.41667 20.62802,17.94027 C 20.75684,18.70603 20.59547,20.51459 18.46992,21.82459 C 17.70821,22.27146 20.20184,21.94369 20.59547,21.52689 C 20.98908,21.11006 20.38038,25.21906 15.73576,25.45724 C 15.99503,25.21861 17.14131,24.64621 17.20771,24.20116 C 16.63396,24.17718 16.09217,24.12791 15.67222,24.01744 C 16.05942,23.84372 17.50285,23.33873 17.58932,22.91824 C 17.09609,23.16678 15.9141,23.03397 15.51849,23.00737 C 15.64811,22.67543 16.85246,21.57732 16.52234,20.3884 C 16.31744,20.57429 15.19699,21.62959 14.92748,21.89553 C 14.69082,22.12916 14.35413,20.58899 14.10857,20.41228 C 13.51234,21.10003 14.17236,22.2557 14.216,23.04817 C 13.82617,22.80194 12.82013,22.97141 12.3288,22.9328 C 12.83793,23.4023 13.34469,24.15535 13.31738,24.57847 C 13.30014,24.81874 13.51854,25.52519 13.53828,25.49538 z" />
  </g>
  <flowRoot
     xml:space="preserve"
     id="flowRoot2821"
     transform="matrix(1.8063661,0,0,1.8043851,-65.220526,-87.392044)"><flowRegion
       id="flowRegion2823"><rect
         id="rect2825"
         width="42.482758"
         height="14.344828"
         x="62.896553"
         y="82.206894" /></flowRegion><flowPara
       id="flowPara2827">-65</flowPara></flowRoot>  <flowRoot
     xml:space="preserve"
     id="flowRoot2829"
     transform="matrix(1.8063661,0,0,1.8043851,-65.220526,-75.445771)"><flowRegion
       id="flowRegion2831"><rect
         id="rect2833"
         width="45.793102"
         height="15.448276"
         x="61.793102"
         y="58.482758" /></flowRegion><flowPara
       id="flowPara2835">-25</flowPara></flowRoot>  <flowRoot
     xml:space="preserve"
     id="flowRoot2837"
     transform="matrix(1.8063661,0,0,1.8043851,-70.203604,-89.383091)"
     style="fill:#000000;fill-opacity:1"><flowRegion
       id="flowRegion2839"><rect
         id="rect2841"
         width="50.758621"
         height="14.896552"
         x="62.896553"
         y="99.310349"
         style="fill:#000000;fill-opacity:1" /></flowRegion><flowPara
       id="flowPara2843">+290</flowPara><flowPara
       id="flowPara2845" /></flowRoot>  <path
     style="fill:none;fill-opacity:0.75;fill-rule:evenodd;stroke:#000000;stroke-width:2.00000024;stroke-linecap:round;stroke-linejoin:miter;stroke-miterlimit:4;stroke-dasharray:none;stroke-opacity:1"
     d="M 44.157575,119.6767 C 43.937267,119.25507 105.32932,119.3712 105.20099,119.6767"
     id="path2847"
     sodipodi:nodetypes="cc" />
  <path
     d="M 117.73363,40.488118 C 117.73363,46.233282 113.07127,50.890371 107.31996,50.890371 C 101.56865,50.890371 96.906291,46.233282 96.906291,40.488118 C 96.906291,34.742952 101.56865,30.085863 107.31996,30.085863 C 113.07127,30.085863 117.73363,34.742952 117.73363,40.488118 z"
     style="fill:#000001"
     id="path2844" />
  <path
     d="M 105.03823,33.925856 C 105.37433,34.257167 105.41759,34.831373 105.15163,35.431582 C 104.88572,36.031273 104.35118,36.565428 103.75052,36.830685 C 103.14986,37.096462 102.57487,37.053294 102.24325,36.717821 C 101.90714,36.386509 101.86388,35.812305 102.12984,35.212094 C 102.39575,34.611884 102.93034,34.078249 103.53095,33.812471 C 104.13166,33.546694 104.70665,33.589864 105.03823,33.925856 L 105.03823,33.925856 z"
     style="fill:#fffffe"
     id="path5" />
  <flowRoot
     xml:space="preserve"
     id="flowRoot3762"
     transform="matrix(2.1540391,0,0,2.1516769,-91.535205,-117.83504)"><flowRegion
       id="flowRegion3764"><rect
         id="rect3766"
         width="32.551723"
         height="13.24138"
         x="60.689655"
         y="114.75862" /></flowRegion><flowPara
       id="flowPara3768">+200</flowPara></flowRoot>  <g
     id="g3779"
     transform="matrix(1.623994,0,0,1.649264,207.38665,99.662578)">
    <path
       id="path2792"
       style="fill:#b50000"
       d="M 27.709464,13.969059 C 27.711213,21.68344 21.507726,27.938117 13.854733,27.938117 C 6.2017383,27.938117 -0.0017486043,21.68344 0,13.969059 C -0.0017486043,6.2546768 6.2017383,0 13.854733,0 C 21.507726,0 27.711213,6.2546768 27.709464,13.969059 L 27.709464,13.969059 z" />
    <path
       id="path3782"
       style="fill:#000001"
       d="M 17.868008,28.439063 C 17.481348,28.754953 16.388298,27.786143 16.006668,25.662213 C 15.798998,24.506453 16.152918,22.443363 15.505538,19.612643 C 14.059118,17.077703 13.828698,15.476933 5.8408572,14.554813 C 4.3135967,14.378503 0.92498669,14.598883 1.1158967,13.232493 L 1.1158967,7.4143227 C 1.1158967,5.159903 6.6657572,8.2313027 11.138528,7.1498627 C 13.003898,6.698853 14.352418,6.500343 18.032458,5.720453 C 22.786528,6.327843 21.710498,6.356153 24.883858,7.2820927 C 27.621748,8.0809827 24.597498,10.191183 24.597498,10.191183 C 24.597498,10.191183 28.252998,11.999243 24.167958,13.232493 C 25.599758,13.496963 27.712098,15.223173 24.167948,15.744893 C 26.265888,16.646613 26.397748,18.038413 24.024778,18.521743 C 22.641318,18.803513 21.302668,17.368823 20.015718,19.182893 C 17.295288,23.017593 21.590708,25.397743 17.868008,28.439063 z" />
    <path
       id="path3784"
       style="fill:#e1cb91"
       d="M 16.14578,26.959442 C 15.79884,27.254762 14.81812,26.349042 14.4757,24.363442 C 14.28937,23.282952 14.60692,21.354232 14.02607,18.707872 C 12.72828,16.338022 12.52154,14.841512 5.3545192,13.979432 C 3.9842091,13.814612 0.94380909,14.020652 1.1150991,12.743252 L 1.1150991,7.3040117 C 1.1150991,5.196412 6.0946592,8.0677717 10.10781,7.0567717 C 11.7815,6.635132 12.99144,6.449552 16.29333,5.720452 C 20.55886,6.288292 19.59341,6.314742 22.44068,7.1803917 C 24.89723,7.9272417 22.18374,9.9000117 22.18374,9.9000117 C 22.18374,9.9000117 25.46361,11.590312 21.79834,12.743242 C 23.08301,12.990492 24.97829,14.604272 21.79834,15.092012 C 23.68069,15.935012 23.799,17.236162 21.66987,17.688012 C 20.42858,17.951442 19.22749,16.610172 18.07279,18.306102 C 15.63191,21.891062 19.48593,24.116202 16.14578,26.959442 z" />
  </g>
  <g
     id="g4687"
     transform="matrix(1.8063661,0,0,1.8043851,96.362257,127.08852)">
    <path
       id="path13012"
       style="fill:#ffb900"
       d="M 8.1943552,13.262018 C 9.5638022,13.662852 10.640263,11.845542 10.86116,10.507839 C 11.082058,9.170136 12.735216,8.259712 12.167313,6.76461 C 11.599411,5.269503 12.419974,3.383284 10.224452,3.986034 C 8.0608562,4.580017 4.847416,2.125021 4.6089951,4.215126 C 4.3705744,6.305227 4.3274186,6.866079 2.7635759,7.986902 C 1.1997334,9.107722 3.331975,11.812597 4.8492415,11.737441 C 6.3665084,11.662283 6.8249084,12.861182 8.1943552,13.262018 z" />
    <path
       id="path13014"
       style="fill:#ffdc00"
       d="M 4.9945384,5.623387 C 4.9262128,6.488521 3.8885483,8.01544 3.1332894,8.500108 C 1.5406041,10.031015 4.6217838,11.187258 5.758516,11.400217 C 7.5726132,12.244494 9.2912382,13.956921 10.095635,11.015502 C 10.618502,9.233009 12.046963,8.226597 11.351842,6.353203 C 11.391022,4.265479 10.366645,4.842401 8.7541582,4.78497 C 6.9763804,4.435969 5.0179062,3.095014 4.9945384,5.623387 z" />
    <path
       id="path13016"
       style="fill:#ffff01"
       d="M 4.3120516,8.615628 C 2.6714796,9.696034 4.980883,10.472404 5.9546612,10.634995 C 7.1769462,10.896537 8.7172672,13.088214 9.3486172,11.02967 C 9.4704022,9.455676 11.317488,8.379824 10.683276,6.847672 C 10.624376,5.185268 9.5757962,5.727513 8.3160292,5.557049 C 5.0805941,3.759877 5.9823881,6.590005 4.3120516,8.615628 z" />
    <path
       id="path13018"
       style="fill:#ffff6d"
       d="M 6.8701272,7.459007 C 5.5655367,8.503904 5.7056479,10.48999 7.6624412,10.23648 C 9.0376122,8.957411 9.2827842,6.778238 6.8701272,7.459007 z" />
    <path
       id="rect5437"
       style="fill:#fff100"
       d="M 6.7025539,0.08887 L 7.1154062,0 L 7.5820112,2.167632 L 7.1691592,2.256502 L 6.7025539,0.08887 z" />
    <path
       id="rect5439"
       style="fill:#fff100"
       d="M 6.8958044,13.803474 L 7.3107992,13.881826 L 6.8994529,16.060547 L 6.4844579,15.982195 L 6.8958044,13.803474 z" />
    <path
       id="rect5441"
       style="fill:#fff100"
       d="M 0,4.268972 L 0.2198846,3.909183 L 2.1147648,5.067236 L 1.8948802,5.427025 L 0,4.268972 z" />
    <path
       id="rect5443"
       style="fill:#fff100"
       d="M 15.076374,2.885052 L 15.303126,3.239822 L 13.429204,4.437548 L 13.202452,4.082778 L 15.076374,2.885052 z" />
    <path
       id="rect5445"
       style="fill:#fff100"
       d="M 12.599035,10.914803 L 12.86365,10.587699 L 14.593966,11.987458 L 14.329351,12.314562 L 12.599035,10.914803 z" />
    <path
       id="rect5447"
       style="fill:#fff100"
       d="M 1.8022026,11.375099 L 2.1298347,11.639099 L 0.7334784,13.372018 L 0.4058463,13.108018 L 1.8022026,11.375099 z" />
  </g>
  <g
     id="g3757"
     transform="matrix(1.5625,0,0,1.5625,120.82752,83.517318)">
    <path
       id="path2198"
       style="fill:#49ff00"
       d="M 32,25.20655 L 10.20856,4.43268 L 12.68348,32 L 26.48154,5.63777 L 0,16.42149 L 30.31912,20.90261 L 11.4777,0 L 16.41788,29.13172 L 31.25479,5.42947 L 3.98888,18.95274 L 32,25.20655 z" />
    <path
       id="path2181"
       style="fill:#000001"
       d="M 14.99016,1.59912 C 15.37682,1.28323 16.46987,2.25204 16.8515,4.37597 C 17.05917,5.53173 16.70525,7.59482 17.35263,10.42554 C 18.79905,12.96048 19.02947,14.56125 27.01731,15.48337 C 28.54457,15.65968 31.93318,15.4393 31.74227,16.80569 L 31.74227,22.62386 C 31.74227,24.87828 26.19241,21.80688 21.71964,22.88832 C 19.85427,23.33933 18.50575,23.53784 14.82571,24.31773 C 10.07164,23.71034 11.14767,23.68203 7.97431,22.75609 C 5.23642,21.9572 8.26067,19.847 8.26067,19.847 C 8.26067,19.847 4.60517,18.03894 8.69021,16.80569 C 7.25841,16.54122 5.14607,14.81501 8.69022,14.29329 C 6.59228,13.39157 6.46042,11.99977 8.83339,11.51644 C 10.21685,11.23467 11.5555,12.66936 12.84245,10.85529 C 15.56288,7.02059 11.26746,4.64044 14.99016,1.59912 z" />
    <path
       id="path1315"
       style="fill:#9e731c"
       d="M 14.14304,1.59531 C 14.48998,1.29999 15.4707,2.20571 15.81312,4.19131 C 15.99945,5.2718 15.6819,7.20052 16.26275,9.84688 C 17.56054,12.21673 17.76728,13.71324 24.9343,14.57532 C 26.30461,14.74014 29.34501,14.5341 29.17372,15.8115 L 29.17372,21.25074 C 29.17372,23.35834 24.19416,20.48698 20.18101,21.49798 C 18.50732,21.91962 17.29738,22.1052 13.99549,22.8343 C 9.72996,22.26646 10.69541,22.24001 7.84814,21.37436 C 5.39159,20.62751 8.10508,18.65474 8.10508,18.65474 C 8.10508,18.65474 4.82521,16.96444 8.49048,15.81151 C 7.20581,15.56426 5.31053,13.95048 8.49048,13.46274 C 6.60813,12.61974 6.48982,11.31859 8.61895,10.86674 C 9.86024,10.60331 11.06133,11.94458 12.21603,10.24865 C 14.65691,6.66369 10.80289,4.43855 14.14304,1.59531 z" />
  </g>
</svg>
