<?xml version="1.0" encoding="UTF-8" standalone="no"?>
<!-- file: bg_pretty.svg -->

<svg
   xmlns:dc="http://purl.org/dc/elements/1.1/"
   xmlns:cc="http://creativecommons.org/ns#"
   xmlns:rdf="http://www.w3.org/1999/02/22-rdf-syntax-ns#"
   xmlns:svg="http://www.w3.org/2000/svg"
   xmlns="http://www.w3.org/2000/svg"
   xmlns:sodipodi="http://sodipodi.sourceforge.net/DTD/sodipodi-0.dtd"
   xmlns:inkscape="http://www.inkscape.org/namespaces/inkscape"
   version="1.0"
   width="176"
   height="208"
   id="svg2"
   sodipodi:version="0.32"
   inkscape:version="0.47 r22583"
   sodipodi:docname="screen_dead.svg"
   inkscape:output_extension="org.inkscape.output.svg.inkscape">
  <metadata
     id="metadata8">
    <rdf:RDF>
      <cc:Work
         rdf:about="">
        <dc:format>image/svg+xml</dc:format>
        <dc:type
           rdf:resource="http://purl.org/dc/dcmitype/StillImage" />
      </cc:Work>
    </rdf:RDF>
  </metadata>
  <defs
     id="defs6">
    <inkscape:perspective
       sodipodi:type="inkscape:persp3d"
       inkscape:vp_x="0 : 104 : 1"
       inkscape:vp_y="0 : 1000 : 0"
       inkscape:vp_z="176 : 104 : 1"
       inkscape:persp3d-origin="88 : 69.333333 : 1"
       id="perspective9" />
  </defs>
  <sodipodi:namedview
     inkscape:window-height="627"
     inkscape:window-width="853"
     inkscape:pageshadow="2"
     inkscape:pageopacity="0.0"
     guidetolerance="10.0"
     gridtolerance="10.0"
     objecttolerance="10.0"
     borderopacity="1.0"
     bordercolor="#666666"
     pagecolor="#ffffff"
     id="base"
     inkscape:zoom="1.8125"
     inkscape:cx="88"
     inkscape:cy="104"
     inkscape:window-x="354"
     inkscape:window-y="117"
     inkscape:current-layer="svg2"
     showgrid="false"
     inkscape:window-maximized="0" />
  <path
     d="M 0,0 L 176,0 L 176,208 L 0,208 L 0,0 z "
     style="fill:#97d0ff;fill-opacity:1"
     id="path3" />
  <path
     id="path1534"
     style="fill:#000000"
     d="M 143.6,55.704 C 141.73,49.736 132.37,60.423 121.64,71.219 110.58,82.346 105.95,64.507 87.991,65.381 70.361,66.255 67.227,81.885 59.591,80.634 51.954,79.383 49.129,69.167 43.705,64.386 38.281,59.606 26.787,58.817 27.919,64.393 29.067,70.043 14.376,68.936 21.256,78.797 28.248,88.817 35.081,82.746 43.233,85.847 51.384,88.948 61.164,92.548 65.866,102.2 70.437,111.59 66.424,114.24 61.858,117.19 57.292,120.14 54.984,123.13 49.761,127.44 44.537,131.75 32.527,125.97 26.713,133.35 20.898,140.74 31.179,142.5 35.71,148 40.242,153.51 46.857,146.64 50.534,140.06 54.211,133.48 63.047,128.38 70.444,123.07 77.841,117.77 67.31,145.37 86.023,141.78 104.74,138.18 99.96,142.1 102.41,129.5 104.89,116.75 112.38,124.09 118.19,126.96 124.01,129.84 129.01,134.64 132.93,140.12 136.85,145.59 139.3,143.25 146,136.73 152.85,130.05 143.35,119.81 136.7,121.4 130.05,122.98 127.9,121.58 119.94,117.28 111.58,112.78 103.48,113.4 110.21,101.65 117.08,89.649 112.39,92.397 126.65,84.287 140.77,76.255 143.91,79.815 149.28,79.029 154.64,78.242 159.35,70.624 154.68,66.685 150.01,62.747 145.56,61.974 143.6,55.704 z"
     sodipodi:nodetypes="cscsssssssssssssssssssssssc" />
  <path
     style="fill:#ffffff;fill-opacity:1"
     d="M 141.11294,58.285171 C 135.0326,58.625578 132.38808,60.950149 130.22487,66.686983 C 127.68491,73.422946 114.04562,79.617247 115.6503,83.404875 C 117.19966,87.061864 132.73293,75.825705 147.0285,76.031856 C 160.9974,76.237971 151.32422,61.749972 143.77065,65.65819 C 136.21709,69.56637 147.1933,57.944789 141.11294,58.285171 z M 32.40377,62.314612 C 27.842485,62.757813 34.149537,73.20482 32.489503,72.345347 C 30.605659,71.370023 22.816569,67.216296 23.487562,75.260261 C 24.158582,83.304193 34.078015,81.632308 41.062781,81.775952 C 48.047547,81.919599 54.498026,93.301164 60.524121,88.891772 C 66.550243,84.482392 49.907797,82.210657 48.264334,75.517459 C 46.620898,68.82424 39.941314,63.448586 33.432564,62.400345 C 33.025765,62.334828 32.707854,62.285065 32.40377,62.314612 z M 88.987422,68.315906 C 71.662743,69.352518 62.938575,89.072511 67.125545,96.950675 C 71.312541,104.82879 75.022178,104.25006 77.584943,128.84321 C 80.153626,153.49329 80.06183,108.5421 83.07186,129.78627 C 86.035882,150.70567 85.778821,110.11791 89.24462,130.3864 C 92.720433,150.71333 91.851966,111.2267 95.760284,129.35761 C 99.684101,147.56056 98.678655,126.59885 101.84731,112.29681 C 105.0079,98.031128 103.85351,104.20501 108.70593,95.750405 C 113.60036,87.222749 106.63756,67.25987 88.987422,68.315906 z M 96.27468,84.262202 C 104.51158,83.148362 105.46603,99.402276 97.646405,100.12276 C 89.826862,100.84322 88.037804,85.376032 96.27468,84.262202 z M 80.757075,85.033797 C 89.127557,84.504998 87.567961,103.19575 79.471084,101.23729 C 71.374187,99.278821 72.386602,85.562622 80.757075,85.033797 z M 87.529965,106.63845 C 88.69283,106.17341 89.600829,108.49352 91.988041,113.06841 C 95.738528,120.25581 81.563375,116.92531 84.786516,110.58216 C 85.995224,108.20345 86.832278,106.91746 87.529965,106.63845 z M 107.33421,115.72613 C 106.62261,115.75754 106.2537,116.2513 106.04822,117.35505 C 105.63061,119.59848 112.50078,120.38788 120.27987,124.64231 C 128.05898,128.89677 128.92862,131.54674 136.99776,137.33076 C 144.91001,143.00234 134.36257,129.96463 141.45587,132.95839 C 148.41015,135.89346 149.93112,130.82151 141.11294,126.27123 C 132.159,121.65096 134.45423,127.0437 122.85185,122.75621 C 114.19013,119.55538 109.46902,115.63183 107.33421,115.72613 z M 58.895198,123.95644 C 57.762236,123.87667 56.065029,124.60338 54.179895,126.4427 C 49.152882,131.34763 42.52139,133.43374 35.49015,131.58666 C 28.458938,129.73958 28.041028,140.5626 33.518297,140.5886 C 38.995592,140.61461 38.262104,152.12371 42.691704,145.8183 C 47.121331,139.5129 52.2735,133.89618 57.694939,129.27188 C 61.083373,126.38168 60.783459,124.08939 58.895198,123.95644 z"
     id="path4558" />
</svg>
