<?xml version="1.0" encoding="UTF-8" standalone="no"?>
<!-- file: bg_pretty.svg -->

<svg
   xmlns:dc="http://purl.org/dc/elements/1.1/"
   xmlns:cc="http://creativecommons.org/ns#"
   xmlns:rdf="http://www.w3.org/1999/02/22-rdf-syntax-ns#"
   xmlns:svg="http://www.w3.org/2000/svg"
   xmlns="http://www.w3.org/2000/svg"
   xmlns:sodipodi="http://sodipodi.sourceforge.net/DTD/sodipodi-0.dtd"
   xmlns:inkscape="http://www.inkscape.org/namespaces/inkscape"
   version="1.0"
   width="176"
   height="208"
   id="svg2"
   sodipodi:version="0.32"
   inkscape:version="0.47 r22583"
   sodipodi:docname="screen_normal.svg"
   inkscape:output_extension="org.inkscape.output.svg.inkscape">
  <metadata
     id="metadata8">
    <rdf:RDF>
      <cc:Work
         rdf:about="">
        <dc:format>image/svg+xml</dc:format>
        <dc:type
           rdf:resource="http://purl.org/dc/dcmitype/StillImage" />
      </cc:Work>
    </rdf:RDF>
  </metadata>
  <defs
     id="defs6">
    <inkscape:perspective
       sodipodi:type="inkscape:persp3d"
       inkscape:vp_x="0 : 104 : 1"
       inkscape:vp_y="0 : 1000 : 0"
       inkscape:vp_z="176 : 104 : 1"
       inkscape:persp3d-origin="88 : 69.333333 : 1"
       id="perspective57" />
    <linearGradient
       id="linearGradient6374">
      <stop
         id="stop6376"
         offset="0"
         style="stop-color:yellow;stop-opacity:1;" />
      <stop
         id="stop6378"
         offset="1"
         style="stop-color:#ff8e00;stop-opacity:1;" />
    </linearGradient>
    <inkscape:perspective
       id="perspective3649"
       inkscape:persp3d-origin="0.5 : 0.33333 : 1"
       inkscape:vp_z="1 : 0.5 : 1"
       inkscape:vp_y="0 : 1000 : 0"
       inkscape:vp_x="0 : 0.5 : 1"
       sodipodi:type="inkscape:persp3d" />
    <inkscape:perspective
       id="perspective3649-7"
       inkscape:persp3d-origin="0.5 : 0.33333 : 1"
       inkscape:vp_z="1 : 0.5 : 1"
       inkscape:vp_y="0 : 1000 : 0"
       inkscape:vp_x="0 : 0.5 : 1"
       sodipodi:type="inkscape:persp3d" />
    <inkscape:perspective
       id="perspective3680"
       inkscape:persp3d-origin="0.5 : 0.33333 : 1"
       inkscape:vp_z="1 : 0.5 : 1"
       inkscape:vp_y="0 : 1000 : 0"
       inkscape:vp_x="0 : 0.5 : 1"
       sodipodi:type="inkscape:persp3d" />
    <inkscape:perspective
       id="perspective3741"
       inkscape:persp3d-origin="0.5 : 0.33333 : 1"
       inkscape:vp_z="1 : 0.5 : 1"
       inkscape:vp_y="0 : 1000 : 0"
       inkscape:vp_x="0 : 0.5 : 1"
       sodipodi:type="inkscape:persp3d" />
    <inkscape:perspective
       id="perspective3741-4"
       inkscape:persp3d-origin="0.5 : 0.33333 : 1"
       inkscape:vp_z="1 : 0.5 : 1"
       inkscape:vp_y="0 : 1000 : 0"
       inkscape:vp_x="0 : 0.5 : 1"
       sodipodi:type="inkscape:persp3d" />
    <inkscape:perspective
       id="perspective3775"
       inkscape:persp3d-origin="0.5 : 0.33333 : 1"
       inkscape:vp_z="1 : 0.5 : 1"
       inkscape:vp_y="0 : 1000 : 0"
       inkscape:vp_x="0 : 0.5 : 1"
       sodipodi:type="inkscape:persp3d" />
    <inkscape:perspective
       id="perspective3775-2"
       inkscape:persp3d-origin="0.5 : 0.33333 : 1"
       inkscape:vp_z="1 : 0.5 : 1"
       inkscape:vp_y="0 : 1000 : 0"
       inkscape:vp_x="0 : 0.5 : 1"
       sodipodi:type="inkscape:persp3d" />
    <inkscape:perspective
       id="perspective3712"
       inkscape:persp3d-origin="0.5 : 0.33333 : 1"
       inkscape:vp_z="1 : 0.5 : 1"
       inkscape:vp_y="0 : 1000 : 0"
       inkscape:vp_x="0 : 0.5 : 1"
       sodipodi:type="inkscape:persp3d" />
    <inkscape:perspective
       id="perspective3712-4"
       inkscape:persp3d-origin="0.5 : 0.33333 : 1"
       inkscape:vp_z="1 : 0.5 : 1"
       inkscape:vp_y="0 : 1000 : 0"
       inkscape:vp_x="0 : 0.5 : 1"
       sodipodi:type="inkscape:persp3d" />
  </defs>
  <sodipodi:namedview
     inkscape:window-height="676"
     inkscape:window-width="970"
     inkscape:pageshadow="2"
     inkscape:pageopacity="0.0"
     borderopacity="1.0"
     bordercolor="#666666"
     pagecolor="#ffffff"
     id="base"
     inkscape:zoom="2.4856"
     inkscape:cx="88"
     inkscape:cy="104"
     inkscape:window-x="197"
     inkscape:window-y="26"
     inkscape:current-layer="svg2"
     showgrid="false"
     inkscape:window-maximized="0" />
  <path
     d="M 0,0 L 176,0 L 176,208 L 0,208 L 0,0 z "
     style="fill:#97d0ff;fill-opacity:1"
     id="path3" />
  <rect
     style="fill:#000000;fill-opacity:0.34884;stroke:none"
     id="rect3702"
     width="176.22"
     height="20.518"
     x="-0.40232"
     y="10.058" />
  <path
     style="fill:#e9eff5;fill-opacity:0.59884;stroke:none"
     d="M 63.458,72.579 92.458,72.149 C 92.458,72.149 93.498,72.149 96.608,72.149 99.708,72.149 100.49,68.059 98.158,66.554 95.828,65.047 93.498,65.693 93.498,65.693 93.498,65.693 93.238,60.313 90.658,59.236 88.058,58.161 86.768,57.946 83.908,59.883 81.068,61.819 82.618,60.528 82.618,60.528 82.618,60.528 80.548,57.085 77.438,56.87 74.338,56.655 70.708,59.236 69.928,60.744 69.158,62.249 69.418,63.326 69.418,63.326 69.418,63.326 65.788,62.895 63.968,63.971 62.158,65.047 59.568,67.415 63.458,72.579 z"
     id="path3639-0" />
  <path
     style="fill:#7aa9cf;stroke:none;stroke-width:1px;stroke-linecap:butt;stroke-linejoin:miter;stroke-opacity:1;fill-opacity:1"
     d="M 0.39246,207.22 C 0.39246,207.22 176.21,208.78 176.21,208.78 176.21,208.78 176.6,122.05 176.6,122.05 176.6,122.05 173.98,122.34 173.46,122.45 173.21,122.5 172.94,122.45 172.68,122.45 171.37,122.45 170.06,122.45 168.75,122.45 168.1,122.45 167.45,122.45 166.79,122.45 166.01,122.45 165.18,122.69 164.44,122.45 163.54,122.15 162.91,121.32 162.08,120.88 161.21,120.4 160.14,120.28 159.34,119.7 158.66,119.21 158.39,118.29 157.77,117.74 157.2,117.23 156.42,117.01 155.8,116.56 154.98,115.96 154.24,115.24 153.45,114.6 152.8,114.07 152.11,113.59 151.49,113.03 150.8,112.41 150.18,111.72 149.52,111.06 149,110.54 148.41,110.08 147.95,109.49 147.49,108.89 147.2,108.17 146.78,107.53 146.41,106.99 145.96,106.51 145.6,105.96 145.18,105.33 144.88,104.61 144.42,104 142.7,101.7 143.61,103.96 141.28,101.25 141.01,100.94 141.08,100.45 140.89,100.08 140.81,99.91 140.58,99.848 140.5,99.683 140.31,99.313 140.4,98.798 140.11,98.506 139.81,98.213 139.22,98.406 138.93,98.113 137.29,98.155 138.92,96.925 138.54,96.543 138,96.004 137.24,96.151 136.57,96.151 136.44,96.151 136.31,96.119 136.18,96.151 135.78,96.251 135.4,96.413 135,96.543 132.04,97.53 135.58,96.084 133.04,98.113 132.72,98.372 132.25,98.36 131.86,98.506 130.24,99.113 128.55,99.812 127.15,100.86 124.58,102.79 127.19,101.22 125.19,103.22 123.69,104.72 121.85,105.9 120.48,107.53 119.85,108.3 119.84,109.44 119.31,110.28 118.91,110.9 118.19,111.26 117.74,111.85 117.27,112.45 117.07,113.24 116.56,113.81 115.28,114.84 114.45,115.38 113.42,116.56 112.87,117.19 112.36,117.86 111.85,118.52 111.45,119.04 111.11,119.6 110.67,120.09 110.06,120.78 109.36,121.4 108.71,122.05 108.32,122.45 107.96,122.87 107.53,123.23 107.17,123.53 106.75,123.75 106.35,124.02 105.49,123.98 105.33,124.83 104.78,125.19 104.52,125.32 104.26,125.45 104,125.58 103.87,125.58 103.72,125.53 103.61,125.58 103.44,125.67 103.39,125.92 103.22,125.98 102.97,126.06 102.68,125.89 102.43,125.98 102.25,126.04 102.19,126.27 102.04,126.37 101.79,126.53 101.53,126.67 101.25,126.76 101.13,126.8 100.99,126.76 100.86,126.76 100.47,126.76 100.08,126.76 99.683,126.76 99.588,126.76 98.518,126.77 98.506,126.76 97.552,125.81 98.622,126.19 97.721,125.58 97.477,125.42 97.179,125.35 96.936,125.19 96.597,124.97 96.065,124.32 95.758,124.02 95.628,123.88 95.425,123.8 95.366,123.62 95.283,123.37 95.551,123.02 95.366,122.84 95.181,122.65 94.766,123.02 94.581,122.84 94.396,122.65 94.581,122.31 94.581,122.05 94.581,121.92 94.45,121.66 94.581,121.66 94.712,121.66 94.581,122.18 94.581,122.05 94.581,121.27 94.663,120.48 94.581,119.7 94.401,117.99 94.164,116.28 93.796,114.6 93.247,112.09 92.426,109.64 91.834,107.14 91.249,104.67 90.994,102.12 90.264,99.683 76.09,52.436 87.748,90.859 82.023,76.136 81.573,74.979 81.461,73.681 80.845,72.604 80.681,72.316 78.223,70.055 77.706,69.464 77.154,68.834 76.728,68.094 76.136,67.502 75.802,67.168 75.313,67.028 74.958,66.717 74.262,66.108 73.65,65.409 72.996,64.755 72.604,64.362 72.094,64.059 71.819,63.577 71.551,63.109 71.694,62.476 71.426,62.008 70.876,61.044 69.622,60.617 69.072,59.653 68.804,59.185 68.947,58.551 68.679,58.083 68.404,57.601 67.894,57.298 67.502,56.906 67.371,56.775 67.192,56.679 67.109,56.513 66.497,55.288 67.177,55.358 65.932,54.943 65.808,54.902 65.632,54.851 65.54,54.943 65.269,55.214 64.806,56.701 64.755,56.906 64.723,57.033 64.755,57.167 64.755,57.298 64.493,57.56 64.15,57.76 63.97,58.083 63.486,58.954 63.197,59.92 62.792,60.83 61.618,63.474 63.484,59.055 61.615,62.792 61.43,63.162 61.428,63.611 61.223,63.97 60.83,64.493 60.438,65.016 60.045,65.54 60.045,65.801 60.162,66.091 60.045,66.325 59.852,66.711 58.669,67.508 58.475,67.894 58.417,68.011 58.548,68.178 58.475,68.287 58.27,68.595 57.913,68.776 57.691,69.072 57.515,69.306 57.46,69.613 57.298,69.857 57.195,70.011 56.988,70.084 56.906,70.249 56.847,70.366 56.906,70.511 56.906,70.642 56.644,71.034 56.454,71.485 56.121,71.819 56.028,71.911 55.821,71.726 55.728,71.819 55.521,72.026 55.498,72.36 55.336,72.604 55.131,72.912 54.773,73.093 54.551,73.389 54.268,73.766 54.049,74.189 53.766,74.566 53.676,74.686 52.688,75.694 52.589,75.743 52.421,75.827 50.782,75.743 50.626,75.743 49.706,75.743 50.811,75.651 49.842,76.136 49.528,76.293 48.978,75.979 48.664,76.136 48.499,76.219 48.426,76.426 48.272,76.528 48.028,76.691 47.694,76.714 47.487,76.921 47.171,77.237 46.817,78.615 46.702,78.883 46.363,79.674 45.656,80.71 45.525,81.63 45.451,82.148 45.668,82.697 45.525,83.2 45.395,83.654 44.905,83.936 44.74,84.377 44.078,87.685 44.781,85.066 43.562,87.909 41.734,92.175 44.025,86.877 43.17,89.872 42.976,90.549 42.57,91.154 42.385,91.834 42.176,92.602 42.221,93.427 41.992,94.189 41.824,94.749 41.438,95.221 41.208,95.758 40.453,97.519 41.287,96.437 40.03,98.113 39.919,98.261 39.792,98.403 39.638,98.506 36.792,99.928 40.258,98.092 38.46,99.291 38.217,99.453 37.851,99.449 37.675,99.683 37.427,100.01 37.488,100.5 37.283,100.86 36.959,101.43 36.43,101.86 36.106,102.43 35.9,102.79 35.918,103.25 35.713,103.61 35.389,104.18 34.849,104.6 34.536,105.18 29.595,114.24 36.528,102.37 32.574,110.28 31.238,112.95 29.761,115.55 28.257,118.13 27.927,118.69 27.322,119.09 27.079,119.7 25.972,126.34 27.684,118.88 25.509,123.23 24.78,124.69 26.404,124.24 24.725,124.8 24.6,124.84 24.463,124.8 24.332,124.8 23.714,124.8 23.848,124.92 23.547,124.02 23.506,123.89 23.596,123.74 23.547,123.62 23.33,123.08 23.176,122.47 22.762,122.05 22.47,121.76 21.877,121.95 21.585,121.66 21.292,121.37 21.377,120.85 21.192,120.48 20.376,118.85 21.22,120.9 20.408,120.09 20.201,119.88 20.222,119.51 20.015,119.31 19.923,119.21 19.731,119.38 19.623,119.31 19.315,119.1 19.146,118.73 18.838,118.52 18.833,118.52 17.679,118.51 17.66,118.52 17.495,118.6 17.433,118.83 17.268,118.91 16.898,119.1 16.383,119.01 16.091,119.31 15.798,119.6 15.883,120.11 15.698,120.48 15.579,120.72 14.254,121.88 14.128,122.05 13.777,122.52 13.668,123.14 13.343,123.62 13.241,123.78 12.996,123.84 12.951,124.02 12.856,124.4 13.126,124.84 12.951,125.19 12.82,125.45 12.409,125.42 12.166,125.58 12.012,125.69 11.904,125.85 11.774,125.98 11.643,126.11 11.464,126.2 11.381,126.37 11.323,126.49 11.474,126.67 11.381,126.76 11.174,126.97 10.84,126.99 10.596,127.15 10.006,127.55 10.054,128.41 9.4189,128.72 9.3019,128.78 9.1434,128.67 9.0264,128.72 8.8609,128.81 8.7994,129.03 8.634,129.12 8.517,129.18 8.3723,129.12 8.2415,129.12 7.9799,129.12 7.7048,129.03 7.4566,129.12 7.2811,129.18 7.2296,129.43 7.0642,129.51 6.8513,129.62 5.6017,129.4 5.4943,129.51 5.4018,129.6 5.6113,129.84 5.4943,129.9 5.2603,130.02 4.9711,129.9 4.7094,129.9 4.5786,129.9 4.4095,129.81 4.317,129.9 4.2245,129.99 4.434,130.24 4.317,130.29 4.083,130.41 3.7661,130.18 3.5321,130.29 3.5321,131.18 3.6629,130.23 2.7472,130.69 2.6302,130.75 2.8642,131.02 2.7472,131.08 2.5132,131.2 2.2105,131 1.9623,131.08 1.7868,131.14 1.7353,131.39 1.5698,131.47 1.4528,131.53 1.2699,131.38 1.1774,131.47 1.0849,131.56 1.2944,131.81 1.1774,131.86 0.94334,131.98 0.62647,131.75 0.39245,131.86 0.27545,131.92 0.39245,132.26 0.39245,132.26 0.39245,132.26 0.39246,207.22 0.39246,207.22 z"
     id="path3637"
     sodipodi:nodetypes="cccssssscssssssscsssssscsssssssscsscssssscccsssssssssssssssssssscssssssssssssssscsssccsssssscsssssssssssssscsssssscsssssccscsssssssssssssssssssssssssssssssssssscssssssscc" />
  <text
     xml:space="preserve"
     style="font-size:10px;font-style:normal;font-variant:normal;font-weight:normal;font-stretch:normal;text-align:start;line-height:100%;writing-mode:lr-tb;text-anchor:start;fill:#000000;fill-opacity:1;stroke:none;font-family:Arial"
     x="87.130707"
     y="23.338419"
     id="text1314"
     sodipodi:linespacing="100%"><tspan
       sodipodi:role="line"
       x="87.130707"
       y="23.338419"
       id="tspan1318">7             243</tspan></text>
  <g
     id="g13020"
     transform="matrix(0.16755,0,0,0.16755,105.36,-116.44)">
    <g
       id="g5449">
      <path
         id="path13012"
         sodipodi:nodetypes="czzzzzzz"
         d="M 86.979,848.91 C 95.152,851.3 101.58,840.45 102.9,832.47 104.21,824.49 114.08,819.05 110.69,810.13 107.3,801.21 112.2,789.95 99.095,793.55 86.182,797.09 67.003,782.44 65.58,794.91 64.157,807.39 63.9,810.73 54.566,817.42 45.232,824.11 57.958,840.26 67.014,839.81 76.07,839.36 78.806,846.52 86.979,848.91 z"
         style="fill:#ffb900;fill-opacity:1;fill-rule:evenodd;stroke:none" />
      <path
         id="path13014"
         sodipodi:nodetypes="czzzzzz"
         d="M 67.881,803.32 C 67.473,808.48 61.28,817.59 56.773,820.49 47.267,829.62 65.656,836.52 72.441,837.8 83.268,842.83 93.526,853.06 98.327,835.5 101.45,824.86 109.97,818.85 105.82,807.67 106.06,795.21 99.944,798.66 90.32,798.31 79.71,796.23 68.021,788.23 67.881,803.32 z"
         style="fill:#ffdc00;fill-opacity:1;fill-rule:evenodd;stroke:none" />
      <path
         id="path13016"
         sodipodi:nodetypes="czzzzz"
         d="M 63.808,821.18 C 54.016,827.62 67.8,832.26 73.612,833.23 80.907,834.79 90.1,847.87 93.868,835.58 94.595,826.19 105.62,819.77 101.83,810.62 101.48,800.7 95.224,803.94 87.705,802.92 68.395,792.2 73.777,809.09 63.808,821.18 z"
         style="fill:#ffff00;fill-opacity:1;fill-rule:evenodd;stroke:none" />
      <path
         id="path13018"
         sodipodi:nodetypes="css"
         d="M 79.075,814.27 C 71.289,820.51 72.125,832.36 83.804,830.85 92.012,823.22 93.475,810.21 79.075,814.27 z"
         style="fill:#ffff6d;fill-opacity:1;fill-rule:evenodd;stroke:none" />
      <rect
         transform="matrix(0.99584,0.09108,-0.09187,0.99577,0,0)"
         y="754.51"
         x="156.6"
         height="13.234"
         width="2.5205"
         id="rect5437"
         style="fill:#fff100;fill-opacity:1;fill-rule:nonzero;stroke:none" />
      <rect
         y="853.6"
         x="77.442"
         height="13.233"
         width="2.5206"
         id="rect5439"
         style="fill:#fff100;fill-opacity:1;fill-rule:nonzero;stroke:none" />
      <rect
         inkscape:transform-center-x="2.419e-05"
         inkscape:transform-center-y="-0.80331"
         transform="matrix(-0.797,0.60398,-0.60729,-0.79448,0,0)"
         y="-748.31"
         x="419.6"
         height="13.254"
         width="2.5166"
         id="rect5441"
         style="fill:#fff100;fill-opacity:1;fill-rule:nonzero;stroke:none" />
      <rect
         inkscape:transform-center-x="0.27431"
         inkscape:transform-center-y="-0.75546"
         transform="matrix(-0.54411,0.83901,-0.84115,-0.54081,0,0)"
         y="-481.19"
         x="633.19"
         height="13.274"
         width="2.513"
         id="rect5443"
         style="fill:#fff100;fill-opacity:1;fill-rule:nonzero;stroke:none" />
      <rect
         inkscape:transform-center-x="0.77352"
         inkscape:transform-center-y="-0.22843"
         transform="matrix(0.35579,0.93457,-0.93558,0.35312,0,0)"
         y="249.43"
         x="793.22"
         height="13.283"
         width="2.5111"
         id="rect5445"
         style="fill:#fff100;fill-opacity:1;fill-rule:nonzero;stroke:none" />
      <rect
         inkscape:transform-center-x="0.77774"
         inkscape:transform-center-y="-0.21334"
         transform="matrix(0.37395,0.92745,-0.92856,0.37117,0,0)"
         y="183.69"
         x="787.7"
         height="13.283"
         width="2.5113"
         id="rect5447"
         style="fill:#fff100;fill-opacity:1;fill-rule:nonzero;stroke:none" />
    </g>
  </g>
  <path
     style="fill:#e9eff5;fill-opacity:0.59884;stroke:none"
     d="M 39.758,151.6 122.01,150.34 C 122.01,150.34 124.95,150.34 133.76,150.34 142.58,150.34 144.79,138.38 138.18,133.98 131.57,129.58 124.95,131.46 124.95,131.46 124.95,131.46 124.22,115.73 116.88,112.59 109.53,109.44 105.86,108.81 97.769,114.47 89.703,120.14 94.101,116.36 94.101,116.36 94.101,116.36 88.224,106.29 79.417,105.66 70.602,105.03 60.323,112.59 58.12,116.99 55.918,121.4 56.651,124.54 56.651,124.54 56.651,124.54 46.369,123.28 41.228,126.43 36.085,129.58 28.741,136.5 39.758,151.6 z"
     id="path3639" />
  <path
     style="fill:#e9eff5;fill-opacity:0.59884;stroke:none"
     d="M 160.45,103.44 106.1,102.63 C 106.1,102.63 104.16,102.63 98.339,102.63 92.511,102.63 91.059,94.97 95.426,92.146 99.782,89.322 104.16,90.532 104.16,90.532 104.16,90.532 104.65,80.446 109.49,78.427 114.36,76.411 116.77,76.008 122.12,79.639 127.45,83.27 124.55,80.849 124.55,80.849 124.55,80.849 128.42,74.394 134.25,73.99 140.07,73.587 146.87,78.427 148.32,81.253 149.77,84.077 149.29,86.094 149.29,86.094 149.29,86.094 156.08,85.287 159.49,87.304 162.87,89.322 167.73,93.76 160.45,103.44 z"
     id="path3639-1" />
  <path
     style="fill:#e9eff5;fill-opacity:0.59884;stroke:none"
     d="M 103.02,99.895 43.052,99.265 C 43.052,99.265 40.903,99.265 34.476,99.265 28.05,99.265 26.443,93.342 31.263,91.159 36.063,88.976 40.903,89.911 40.903,89.911 40.903,89.911 41.446,82.114 46.788,80.554 52.149,78.995 54.842,78.683 60.725,81.49 66.61,84.297 63.397,82.425 63.397,82.425 63.397,82.425 67.694,77.435 74.1,77.123 80.527,76.812 88.038,80.554 89.625,82.738 91.252,84.921 90.709,86.48 90.709,86.48 90.709,86.48 98.2,85.856 101.96,87.415 105.7,88.976 111.07,92.406 103.02,99.895 z"
     id="path3639-4" />
  <path
     sodipodi:type="arc"
     style="fill:#ca8d00;fill-opacity:1;stroke:none;stroke-width:0.16000000000000000;stroke-linecap:butt;stroke-linejoin:round;stroke-miterlimit:4;stroke-opacity:1;stroke-dasharray:none"
     id="path3668"
     sodipodi:cx="0.56882"
     sodipodi:cy="101.44"
     sodipodi:rx="7.3315"
     sodipodi:ry="7.3315"
     d="M 7.9003,101.44 A 7.3315,7.3315 0 1 1 -6.7627,101.44 7.3315,7.3315 0 1 1 7.9003,101.44 z" />
  <rect
     style="fill:#000000;fill-opacity:1;stroke:#5a5a5a;stroke-opacity:1;stroke-width:0.16;stroke-miterlimit:4;stroke-dasharray:none"
     id="rect3670"
     width="14.879"
     height="3.5108"
     x="-1.0031"
     y="99.5" />
  <path
     style="font-size:medium;font-style:normal;font-variant:normal;font-weight:normal;font-stretch:normal;text-indent:0;text-align:start;text-decoration:none;line-height:normal;letter-spacing:normal;word-spacing:normal;text-transform:none;direction:ltr;block-progression:tb;writing-mode:lr-tb;text-anchor:start;color:#000000;fill:#2f2f2f;fill-opacity:1;fill-rule:nonzero;stroke:#5a5a5a;stroke-width:0.16000000000000000;stroke-linecap:butt;stroke-linejoin:round;stroke-miterlimit:4;stroke-opacity:1;stroke-dasharray:none;marker:none;visibility:visible;display:inline;overflow:visible;enable-background:accumulate;font-family:Bitstream Vera Sans;-inkscape-font-specification:Bitstream Vera Sans"
     d="M 0.7309,93.656 0.2309,93.688 -0.2379,93.688 -0.2379,93.719 -0.2379,93.844 -0.2066,94.625 C -0.5342,94.66 -0.832,94.734 -1.1441,94.812 L -1.4566,93.938 -1.8941,94.094 -2.3629,94.25 -2.0816,95.125 C -2.3782,95.249 -2.6517,95.401 -2.9253,95.562 L -3.4566,94.812 -3.8629,95.094 -4.2379,95.344 -3.7066,96.094 C -3.9647,96.3 -4.2311,96.509 -4.4566,96.75 L -5.1441,96.188 -5.4253,96.594 -5.7379,96.969 -5.0503,97.531 C -5.2316,97.792 -5.4063,98.058 -5.5503,98.344 L -6.3629,98.031 -6.5191,98.469 -6.7066,98.906 -5.9253,99.219 C -6.0314,99.532 -6.1158,99.812 -6.1753,100.16 L -7.0191,100.09 -7.0504,100.59 -7.1129,101.06 -6.2691,101.12 C -6.2722,101.2 -6.2691,101.28 -6.2691,101.38 -6.2691,101.62 -6.2628,101.89 -6.2379,102.12 L -7.0504,102.28 -6.9566,102.78 -6.8941,103.22 -6.8629,103.22 -6.0816,103.09 C -5.9992,103.41 -5.8644,103.7 -5.7379,104 L -6.4879,104.38 -6.2691,104.84 -6.0503,105.28 -5.3003,104.88 C -5.1325,105.16 -4.974,105.44 -4.7691,105.69 L -5.3316,106.28 -5.0191,106.62 -4.6753,106.94 -4.0816,106.38 C -3.8467,106.59 -3.5952,106.82 -3.3316,107 L -3.7379,107.72 -3.7066,107.72 -3.4253,107.91 -3.3003,107.97 -2.8941,108.19 -2.4879,107.47 C -2.194,107.62 -1.8974,107.78 -1.5816,107.88 L -1.7691,108.66 -1.3003,108.81 -0.8316,108.91 -0.6129,108.12 C -0.2973,108.17 0.027,108.18 0.3559,108.19 L 0.3871,109.06 0.8871,109 1.3559,109 1.3559,108.97 1.3559,108.88 1.3247,108.16 C 1.6516,108.12 1.9822,108.06 2.2934,107.97 L 2.5749,108.78 3.0119,108.62 3.4809,108.44 3.2309,107.66 C 3.5379,107.53 3.8239,107.37 4.1059,107.19 L 4.5749,107.88 4.5749,107.91 4.8869,107.69 4.9809,107.62 5.3559,107.38 4.8559,106.62 C 5.1249,106.41 5.3749,106.2 5.6059,105.94 L 6.2619,106.47 6.5439,106.12 6.8559,105.72 6.1999,105.19 C 6.3799,104.93 6.5269,104.67 6.6679,104.38 L 7.4809,104.66 7.6679,104.22 7.8249,103.81 7.0119,103.44 C 7.1109,103.13 7.2079,102.81 7.2619,102.47 L 8.1369,102.59 8.1679,102.12 8.2309,101.62 7.3559,101.56 C 7.3579,101.5 7.3559,101.42 7.3559,101.38 7.3559,101.08 7.3289,100.84 7.2939,100.56 L 8.1679,100.38 8.0749,99.938 8.0119,99.469 7.1059,99.625 C 7.0229,99.316 6.9489,99.009 6.8249,98.719 L 7.6059,98.312 7.3869,97.875 7.1679,97.438 6.3559,97.844 C 6.1899,97.573 5.9899,97.306 5.7939,97.062 L 6.4499,96.438 6.1369,96.094 5.7939,95.75 5.1369,96.375 C 4.9029,96.161 4.6489,95.961 4.3869,95.781 L 4.8559,94.969 4.8249,94.969 4.4179,94.719 4.0119,94.469 4.0119,94.5 3.5439,95.281 C 3.2569,95.143 2.9739,95.037 2.6679,94.938 L 2.8869,94.031 2.4179,93.906 1.9497,93.781 1.7309,94.688 C 1.4153,94.632 1.091,94.604 0.7621,94.594 L 0.7309,93.656 z M -0.0816,95.562 C 0.9586,95.562 1.7934,96.397 1.7934,97.438 1.7934,98.477 0.9586,99.344 -0.0816,99.344 -1.1218,99.344 -1.9879,98.477 -1.9879,97.438 -1.9879,96.397 -1.1218,95.562 -0.0816,95.562 z M 4.1369,97.656 C 5.1769,97.656 6.0439,98.491 6.0439,99.531 6.0439,100.57 5.1769,101.44 4.1369,101.44 3.0969,101.44 2.2621,100.57 2.2621,99.531 2.2621,98.491 3.0969,97.656 4.1369,97.656 z M -3.3941,99.062 C -2.3539,99.062 -1.5191,99.897 -1.5191,100.94 -1.5191,101.98 -2.3539,102.81 -3.3941,102.81 -4.4343,102.81 -5.3003,101.98 -5.3003,100.94 -5.3003,99.897 -4.4343,99.062 -3.3941,99.062 z M 3.6369,102.22 C 4.6769,102.22 5.5119,103.05 5.5119,104.09 5.5119,105.13 4.6769,105.97 3.6369,105.97 2.5969,105.97 1.7309,105.13 1.7309,104.09 1.7309,103.05 2.5969,102.22 3.6369,102.22 z M -1.0191,103.19 C 0.0211,103.19 0.8559,104.02 0.8559,105.06 0.8559,106.1 0.0211,106.94 -1.0191,106.94 -2.0593,106.94 -2.8941,106.1 -2.8941,105.06 -2.8941,104.02 -2.0593,103.19 -1.0191,103.19 z"
     id="path3709" />
  <path
     sodipodi:type="arc"
     style="fill:#7a1e00;fill-opacity:1;stroke:#7b7b7b;stroke-width:0.16;stroke-linecap:butt;stroke-linejoin:round;stroke-miterlimit:4;stroke-opacity:1;stroke-dasharray:none"
     id="path3657"
     sodipodi:cx="8.0942"
     sodipodi:cy="101.45"
     sodipodi:rx="1.2264"
     sodipodi:ry="1.2264"
     d="M 9.3206,101.45 A 1.2264,1.2264 0 1 1 6.8678,101.45 1.2264,1.2264 0 1 1 9.3206,101.45 z"
     transform="translate(-7.546,-0.04906)" />
  <rect
     style="fill:#ffffff;fill-opacity:1;stroke:none"
     id="rect3663"
     width="28.967"
     height="119.89"
     x="-28.967"
     y="44.255" />
  <rect
     style="fill:#000000;fill-opacity:1;stroke:#5a5a5a;stroke-width:0.16;stroke-linecap:butt;stroke-linejoin:round;stroke-miterlimit:4;stroke-opacity:1;stroke-dasharray:none"
     id="rect3672"
     width="6.3529"
     height="5.4334"
     x="12.873"
     y="98.497"
     ry="0.75231"
     rx="0.91949" />
  <path
     sodipodi:type="arc"
     style="fill:#9d9d9d;fill-opacity:0.27907;stroke:none"
     id="path3674"
     sodipodi:cx="31.18"
     sodipodi:cy="29.168"
     sodipodi:rx="7.4429"
     sodipodi:ry="7.4429"
     d="M 38.623,29.168 A 7.4429,7.4429 0 1 1 23.737,29.168 7.4429,7.4429 0 1 1 38.623,29.168 z"
     transform="translate(0,16.093)" />
  <path
     style="fill:none;stroke:#999999;stroke-width:0.98085px;stroke-linecap:butt;stroke-linejoin:miter;stroke-opacity:0.5407"
     d="M 21.405,103.41 C 48.011,101.52 30.029,101.9 23.463,101.9 23.253,101.9 21.512,101.81 21.405,101.9 20.8,102.34 20.536,103.41 19.759,103.41 18.77,103.41 18.063,102.46 17.291,101.9 17.183,101.81 17.588,101.82 17.702,101.9 18.433,102.34 18.881,103.41 19.759,103.41 20.638,103.41 21.001,102.2 21.817,101.9 22.453,101.66 23.189,101.9 23.874,101.9 24.148,101.9 24.423,101.9 24.697,101.9 26.48,101.9 28.264,101.9 30.046,101.9 30.321,101.9 30.596,101.9 30.87,101.9 31.144,101.9 31.447,102.01 31.692,101.9 32.04,101.74 32.192,101.33 32.515,101.13 32.646,101.06 34.454,101.41 33.339,100.38 33.322,100.36 31.51,100.38 31.281,100.38 27.989,100.38 24.697,100.38 21.405,100.38 20.857,100.38 20.308,100.38 19.759,100.38 19.622,100.38 19.41,100.49 19.348,100.38 19.226,100.15 19.542,99.8 19.348,99.622 18.972,99.276 17.356,100.26 18.114,98.865 18.175,98.752 18.388,98.865 18.525,98.865 19.211,98.865 19.897,98.865 20.583,98.865 23.052,98.865 25.521,98.865 27.989,98.865 28.812,98.865 29.635,98.865 30.458,98.865 30.733,98.865 31.007,98.865 31.281,98.865 31.418,98.865 31.829,98.865 31.692,98.865 28.675,98.865 25.658,98.865 22.64,98.865 21.817,98.865 20.994,98.865 20.171,98.865 19.897,98.865 19.622,98.865 19.348,98.865 19.211,98.865 18.799,98.865 18.936,98.865 21.68,98.865 24.423,98.865 27.166,98.865 27.715,98.865 28.264,98.865 28.812,98.865 28.949,98.865 29.162,98.978 29.223,98.865 29.346,98.64 29.1,98.334 29.223,98.108 29.258,98.046 30.348,98.108 30.458,98.108 30.87,98.108 31.281,98.108 31.692,98.108 31.829,98.108 32.104,97.982 32.104,98.108 32.104,98.234 31.555,98.108 31.692,98.108 32.653,98.108 33.613,98.108 34.573,98.108 34.71,98.108 34.923,98.221 34.984,98.108 35.107,97.882 34.862,97.577 34.984,97.351 35.002,97.319 37.041,97.351 35.808,97.351"
     id="path3692" />
  <rect
     style="fill:#ffffff;fill-opacity:1;stroke:none;stroke-width:0.16000000000000000;stroke-linecap:butt;stroke-linejoin:round;stroke-miterlimit:4;stroke-opacity:0.54069999999999996;stroke-dasharray:none"
     id="rect3696"
     width="203.57"
     height="12.472"
     x="-16.495"
     y="-2.4139" />
  <rect
     style="fill:#ffffff;fill-opacity:1;stroke:none"
     id="rect3700"
     width="214.43"
     height="22.53"
     x="-25.347"
     y="186.67" />
  <text
     xml:space="preserve"
     style="font-size:10px;font-style:normal;font-variant:normal;font-weight:normal;font-stretch:normal;text-align:start;line-height:100%;writing-mode:lr-tb;text-anchor:start;fill:#000000;fill-opacity:1;stroke:none;font-family:Arial"
     x="70.608147"
     y="23.244007"
     id="text1314-1"
     sodipodi:linespacing="100%"><tspan
       sodipodi:role="line"
       x="70.608147"
       y="23.244007"
       id="tspan1318-7">Lvl</tspan></text>
  <text
     xml:space="preserve"
     style="font-size:5.65883px;font-style:normal;font-variant:normal;font-weight:normal;font-stretch:normal;text-align:start;line-height:100%;writing-mode:lr-tb;text-anchor:start;fill:#000000;fill-opacity:1;stroke:none;font-family:Arial"
     x="0.99981821"
     y="17.267269"
     id="text1314-0"
     sodipodi:linespacing="100%"><tspan
       sodipodi:role="line"
       x="0.99981821"
       y="17.267269"
       id="tspan1318-9">39 fps</tspan></text>
</svg>
