<?xml version="1.0" encoding="UTF-8" standalone="no"?>
<!-- shots.svg -->
<svg
   xmlns:svg="http://www.w3.org/2000/svg"
   xmlns="http://www.w3.org/2000/svg"
   version="1.0"
   width="17.32663"
   height="14.999999"
   id="asset-shots">
  <path
     d="M 10.051181,6.7569995 C 10.051181,9.5326331 7.8011489,11.78259 5.0255905,11.78259 C 2.2500323,11.78259 0,9.5326331 0,6.7569995 C 0,3.9813659 2.2500323,1.731409 5.0255905,1.731409 C 7.8011489,1.731409 10.051181,3.9813659 10.051181,6.7569995 z "
     style="fill:#000001"
     id="path2844" />
  <path
     d="M 3.9244334,3.5866057 C 4.0866344,3.7466708 4.1075156,4.0240834 3.979162,4.31406 C 3.8508337,4.6037853 3.5928702,4.8618493 3.3029941,4.9900019 C 3.0131181,5.1184057 2.7356299,5.0975495 2.57559,4.9354742 C 2.4133891,4.7754092 2.3925077,4.4979966 2.5208613,4.20802 C 2.6491898,3.9180434 2.9071783,3.6602306 3.1970294,3.5318268 C 3.4869307,3.403423 3.7644186,3.4242792 3.9244334,3.5866057 L 3.9244334,3.5866057 z "
     style="fill:#fffffe"
     id="path5" />
  <path
     d="M 17.325023,0 C 17.452504,0.13026695 9.9647512,2.0813111 5.7394377,10.99381 L 2.3266295,8.1056276 L 5.8292484,14.999998 C 10.020417,5.6549921 17.444771,-0.025198364 17.325023,0 z "
     style="fill:#ff0001"
     id="path1874" />
</svg>
