<?xml version="1.0" encoding="UTF-8" standalone="no"?>
<!-- file: skull.svg -->
<svg
   xmlns:svg="http://www.w3.org/2000/svg"
   xmlns="http://www.w3.org/2000/svg"
   xmlns:xlink="http://www.w3.org/1999/xlink"
   version="1.0"
   width="50"
   height="35"
   id="svg2">
   <path
      d="M 45.264703,0.62504286 C 44.583523,-1.5503771 41.171813,2.3448329 37.260273,6.2800829 C 33.229673,10.336173 31.542253,3.8335429 24.996843,4.1521629 C 18.570493,4.4707729 17.428216,10.168053 14.644715,9.7120828 C 11.861215,9.2561229 10.831281,5.5322229 8.8541422,3.7896929 C 6.8770032,2.0471429 2.6875432,1.7595429 3.1002662,3.7919529 C 3.5185042,5.8515429 -1.8364648,5.4481129 0.67156819,9.0424029 C 3.2199892,12.694573 5.7106592,10.481793 8.6820572,11.612183 C 11.653455,12.742563 15.218019,14.054843 16.931904,17.574713 C 18.598343,20.997143 17.135552,21.961973 15.471248,23.037623 C 13.806944,24.113293 12.96564,25.200783 11.06165,26.772693 C 9.1576592,28.344603 4.7798052,26.235463 2.6604832,28.928203 C 0.54116019,31.620973 4.2884352,32.261663 5.9401862,34.268133 C 7.5919372,36.274623 10.003239,33.772193 11.343559,31.372613 C 12.683879,28.973033 15.90443,27.114553 18.600803,25.180753 C 21.297173,23.246963 17.458477,33.307613 24.279403,31.998263 C 31.100313,30.688893 29.359653,32.116243 30.253603,27.522633 C 31.157623,22.877263 33.886833,25.551333 36.006073,26.599203 C 38.125313,27.647073 39.949693,29.398903 41.376993,31.394693 C 42.804303,33.390493 43.699443,32.534743 46.139853,30.157933 C 48.638953,27.723943 45.174943,23.992803 42.751153,24.569983 C 40.327363,25.147173 39.543813,24.637723 36.640593,23.071033 C 33.595523,21.427783 30.643123,21.656753 33.095633,17.372703 C 35.600033,12.997993 33.888723,13.999513 39.087353,11.043493 C 44.236013,8.1158829 45.379713,9.4135529 47.335533,9.1268729 C 49.291343,8.8401829 51.005903,6.0633529 49.303523,4.6276829 C 47.601143,3.1920129 45.980323,2.9104929 45.264703,0.62504286 z M 44.334603,1.5820229 C 46.550923,1.4579529 42.533053,5.6883329 45.286363,4.2637829 C 48.039673,2.8392229 51.577243,8.1247029 46.485513,8.0495729 C 41.274713,7.9744329 35.607463,12.089843 35.042713,10.756853 C 34.457783,9.3762429 39.428163,7.1179229 40.353993,4.6626329 C 41.142493,2.5715329 42.118293,1.7061029 44.334603,1.5820229 z M 10.481478,7.8826229 C 11.080521,10.322323 17.161417,11.152503 14.964869,12.759743 C 12.768321,14.366983 10.404874,10.201263 7.8588982,10.148903 C 5.3129212,10.096543 1.7020652,10.704783 1.4574762,7.7727329 C 1.2128872,4.8406729 4.0579692,6.3537929 4.7446412,6.7093029 C 5.3900732,7.0434729 2.7085402,2.6961229 5.0810042,3.0782229 C 7.4534672,3.4603129 9.8824362,5.4429129 10.481478,7.8826229 z M 32.509343,15.233863 C 30.740613,18.315623 31.163583,16.089763 30.011533,21.289673 C 28.856543,26.502843 29.238603,34.135843 27.808353,27.500783 C 26.383753,20.891973 26.672393,35.276563 25.405433,27.867303 C 24.142133,20.479333 24.263253,35.280363 23.182853,27.655143 C 22.085683,19.911533 22.120303,36.306803 21.184013,27.321733 C 20.249873,18.357413 18.872153,18.547683 17.345979,15.676063 C 15.819799,12.804443 19.008113,5.6119429 25.323033,5.2340929 C 31.756603,4.8491629 34.293373,12.125493 32.509343,15.233863 z M 27.995003,11.056583 C 24.992613,11.462583 25.618103,17.112393 28.468373,16.849783 C 31.318663,16.587163 30.997393,10.650583 27.995003,11.056583 z M 22.317813,11.355253 C 19.266733,11.548013 18.891453,16.537593 21.842803,17.251463 C 24.794153,17.965333 25.368893,11.162503 22.317813,11.355253 z M 23.803663,20.659573 C 22.628813,22.971683 27.787903,24.183173 26.420833,21.563333 C 25.028573,18.895223 24.978523,18.347463 23.803663,20.659573 z M 44.321933,26.357343 C 47.536203,28.015943 46.970903,29.879313 44.436033,28.809463 C 41.850493,27.718223 45.701183,32.463893 42.817133,30.396573 C 39.875893,28.288273 39.559973,27.332283 36.724453,25.781513 C 33.888923,24.230743 31.382473,23.930853 31.534693,23.113113 C 31.834273,21.503853 33.450053,23.536273 37.659713,25.091893 C 41.888833,26.654713 41.058183,24.673223 44.321933,26.357343 z M 13.914672,27.470343 C 11.938525,29.155923 10.056457,31.196223 8.4418432,33.494573 C 6.8272282,35.792923 7.1064172,31.610543 5.1099182,31.601063 C 3.1134192,31.591583 3.2547812,27.630863 5.8176962,28.304133 C 8.3806112,28.977403 10.810878,28.210873 12.643247,26.423003 C 14.475615,24.635153 15.890819,25.784763 13.914672,27.470343 z "
      style="fill:#000000"
      id="path1534" />
</svg>
