<?xml version="1.0" encoding="UTF-8" standalone="no"?>
<!-- skull.svg -->
<svg
   xmlns:svg="http://www.w3.org/2000/svg"
   xmlns="http://www.w3.org/2000/svg"
   version="1.0"
   width="50"
   height="35"
   id="asset-skull">
  <path
     d="M 45.26469,0.62504189 C 44.58351,-1.5503781 41.1718,2.3448319 37.26026,6.2800819 C 33.229665,10.336173 31.542245,3.8335419 24.996835,4.1521619 C 18.570488,4.4707719 17.428218,10.168053 14.644718,9.7120819 C 11.861218,9.2561219 10.831278,5.5322219 8.8541427,3.7896919 C 6.8770037,2.0471419 2.6875437,1.7595419 3.1002667,3.7919519 C 3.5185047,5.8515419 -1.8364643,5.4481119 0.67156773,9.0424019 C 3.2199897,12.694573 5.7106597,10.481793 8.6820577,11.612183 C 11.653458,12.742563 15.218018,14.054845 16.931908,17.574709 C 18.598338,20.997139 17.135548,21.961969 15.471248,23.037619 C 13.806948,24.113289 12.965638,25.200779 11.061648,26.772679 C 9.1576597,28.344589 4.7798057,26.235449 2.6604837,28.928189 C 0.54115973,31.620959 4.2884357,32.261649 5.9401867,34.268119 C 7.5919377,36.274609 10.003239,33.772179 11.343558,31.372599 C 12.683878,28.973019 15.904428,27.114539 18.600798,25.180749 C 21.297168,23.246959 17.458478,33.307599 24.279395,31.998249 C 31.100305,30.688879 29.359645,32.116229 30.253595,27.522619 C 31.157615,22.877259 33.886825,25.551319 36.00606,26.599189 C 38.1253,27.647059 39.94968,29.398889 41.37698,31.394679 C 42.80429,33.390479 43.69943,32.534729 46.13984,30.157919 C 48.63894,27.723929 45.17493,23.992799 42.75114,24.569979 C 40.32735,25.147169 39.5438,24.637719 36.64058,23.071029 C 33.595515,21.427779 30.643115,21.656749 33.095625,17.372699 C 35.60002,12.997993 33.888715,13.999515 39.08734,11.043493 C 44.236,8.1158819 45.3797,9.4135519 47.33552,9.1268719 C 49.29133,8.8401819 51.00589,6.0633519 49.30351,4.6276819 C 47.60113,3.1920119 45.98031,2.9104919 45.26469,0.62504189 z M 30.440365,17.302819 C 25.459645,29.937079 23.512105,23.041679 19.690806,16.503639 C 14.591965,7.7798179 35.42109,4.6685669 30.440365,17.302819 z "
     style="fill:#000000"
     id="path1534" />
  <path
     d="M 44.35991,1.5657309 C 42.1436,1.6898109 41.17966,2.5371279 40.39116,4.6282309 C 39.46533,7.0835209 34.493745,9.3413729 35.07866,10.721981 C 35.64341,12.054971 41.30536,7.9593379 46.51616,8.0344809 C 51.60789,8.1096109 48.08197,2.8286669 45.32866,4.2532309 C 42.57535,5.6777809 46.57623,1.4416599 44.35991,1.5657309 z M 4.7349077,3.0344809 C 3.0722977,3.1960299 5.3712477,7.0040129 4.7661577,6.6907309 C 4.0794877,6.3352209 1.2403277,4.8211679 1.4849077,7.7532309 C 1.7294977,10.685282 5.3451777,10.075872 7.8911577,10.128231 C 10.437138,10.180591 12.788368,14.329225 14.984908,12.721981 C 17.181458,11.114741 11.115208,10.286683 10.516158,7.8469809 C 9.9171177,5.4072709 7.4823777,3.4478199 5.1099077,3.0657309 C 4.9616277,3.0418499 4.8457477,3.0237109 4.7349077,3.0344809 z M 25.359915,5.2219809 C 19.044988,5.5998309 15.864988,12.787861 17.391158,15.659489 C 18.917338,18.531099 20.269518,18.320149 21.203658,27.284469 C 22.139955,36.269539 22.106495,19.884619 23.203665,27.628219 C 24.284065,35.253439 24.190365,20.459009 25.453665,27.846969 C 26.720615,35.256229 26.404055,20.863169 27.828655,27.471969 C 29.258905,34.107029 28.892415,26.466389 30.047405,21.253229 C 31.199455,16.053319 30.778675,18.303729 32.547405,15.221985 C 34.331445,12.113614 31.793475,4.8370509 25.359915,5.2219809 z M 28.016155,11.034481 C 31.018545,10.628481 31.366445,16.553109 28.516155,16.815729 C 25.665895,17.078339 25.013775,11.440477 28.016155,11.034481 z M 22.359915,11.315731 C 25.410995,11.122981 24.842515,17.935849 21.891165,17.221979 C 18.939808,16.508109 19.308838,11.50849 22.359915,11.315731 z M 24.828665,19.190729 C 25.252535,19.021219 25.583505,19.866909 26.453655,21.534479 C 27.820725,24.154319 22.653815,22.940339 23.828665,20.628229 C 24.269245,19.761179 24.574355,19.292429 24.828665,19.190729 z M 32.047405,22.503229 C 31.788025,22.514679 31.653555,22.694659 31.578655,23.096979 C 31.426435,23.914719 33.930645,24.202459 36.76616,25.753219 C 39.60168,27.303989 39.91867,28.269919 42.85991,30.378219 C 45.74396,32.445539 41.89937,27.693229 44.48491,28.784469 C 47.01978,29.854319 47.57418,28.005569 44.35991,26.346969 C 41.09616,24.662859 41.93278,26.628539 37.70366,25.065729 C 34.54642,23.899009 32.825555,22.468859 32.047405,22.503229 z M 14.391158,25.503219 C 13.978188,25.474139 13.359548,25.739029 12.672408,26.409469 C 10.840038,28.197339 8.4228277,28.957739 5.8599077,28.284469 C 3.2969977,27.611199 3.1446677,31.556239 5.1411577,31.565719 C 7.1376577,31.575199 6.8702977,35.770319 8.4849077,33.471969 C 10.099528,31.173619 11.977518,29.126299 13.953658,27.440719 C 15.188758,26.387229 15.079438,25.551679 14.391158,25.503219 z "
     style="fill:#ffffff"
     id="path4558" />
</svg>
